<mxfile host="app.diagrams.net" modified="2023-04-10T20:52:04.383Z" agent="Mozilla/5.0 (Windows NT 10.0; Win64; x64) AppleWebKit/537.36 (KHTML, like Gecko) Chrome/111.0.0.0 Safari/537.36" etag="Y3npovA6zs9Fi9yDcdbS" version="21.1.5" type="google">
  <diagram name="Page-1" id="St_Hce9ag6ZJkwX83_-Z">
    <mxGraphModel grid="1" page="1" gridSize="10" guides="1" tooltips="1" connect="1" arrows="1" fold="1" pageScale="1" pageWidth="850" pageHeight="1100" math="0" shadow="0">
      <root>
        <mxCell id="0" />
        <mxCell id="1" parent="0" />
        <mxCell id="4J-5iPxQKvGVU4ECOA4h-3" value="House" style="rounded=1;whiteSpace=wrap;html=1;" vertex="1" parent="1">
          <mxGeometry x="1300" y="270" width="120" height="50" as="geometry" />
        </mxCell>
        <mxCell id="4J-5iPxQKvGVU4ECOA4h-4" value="number_of_rooms" style="ellipse;whiteSpace=wrap;html=1;" vertex="1" parent="1">
          <mxGeometry x="1300" y="140" width="120" height="50" as="geometry" />
        </mxCell>
        <mxCell id="4J-5iPxQKvGVU4ECOA4h-5" value="Outdoor_Space" style="ellipse;whiteSpace=wrap;html=1;" vertex="1" parent="1">
          <mxGeometry x="1140" y="170" width="120" height="50" as="geometry" />
        </mxCell>
        <mxCell id="4J-5iPxQKvGVU4ECOA4h-6" value="Security" style="ellipse;whiteSpace=wrap;html=1;" vertex="1" parent="1">
          <mxGeometry x="1140" y="250" width="120" height="50" as="geometry" />
        </mxCell>
        <mxCell id="4J-5iPxQKvGVU4ECOA4h-7" value="Bathrooms" style="ellipse;whiteSpace=wrap;html=1;" vertex="1" parent="1">
          <mxGeometry x="1460" y="170" width="120" height="50" as="geometry" />
        </mxCell>
        <mxCell id="4J-5iPxQKvGVU4ECOA4h-8" value="Floors" style="ellipse;whiteSpace=wrap;html=1;" vertex="1" parent="1">
          <mxGeometry x="1480" y="250" width="120" height="50" as="geometry" />
        </mxCell>
        <mxCell id="4J-5iPxQKvGVU4ECOA4h-9" value="" style="endArrow=none;html=1;rounded=0;exitX=0.5;exitY=0;exitDx=0;exitDy=0;entryX=0.5;entryY=1;entryDx=0;entryDy=0;" edge="1" parent="1" source="4J-5iPxQKvGVU4ECOA4h-3" target="4J-5iPxQKvGVU4ECOA4h-4">
          <mxGeometry width="50" height="50" relative="1" as="geometry">
            <mxPoint x="1370" y="-60" as="sourcePoint" />
            <mxPoint x="1420" y="-110" as="targetPoint" />
          </mxGeometry>
        </mxCell>
        <mxCell id="4J-5iPxQKvGVU4ECOA4h-10" value="" style="endArrow=none;html=1;rounded=0;entryX=0.5;entryY=1;entryDx=0;entryDy=0;exitX=0.25;exitY=0;exitDx=0;exitDy=0;" edge="1" parent="1" source="4J-5iPxQKvGVU4ECOA4h-3" target="4J-5iPxQKvGVU4ECOA4h-5">
          <mxGeometry width="50" height="50" relative="1" as="geometry">
            <mxPoint x="1360" y="270" as="sourcePoint" />
            <mxPoint x="1370" y="200" as="targetPoint" />
          </mxGeometry>
        </mxCell>
        <mxCell id="4J-5iPxQKvGVU4ECOA4h-11" value="" style="endArrow=none;html=1;rounded=0;entryX=1;entryY=0.5;entryDx=0;entryDy=0;exitX=0;exitY=0.5;exitDx=0;exitDy=0;" edge="1" parent="1" source="4J-5iPxQKvGVU4ECOA4h-3" target="4J-5iPxQKvGVU4ECOA4h-6">
          <mxGeometry width="50" height="50" relative="1" as="geometry">
            <mxPoint x="1340" y="280" as="sourcePoint" />
            <mxPoint x="1210" y="230" as="targetPoint" />
          </mxGeometry>
        </mxCell>
        <mxCell id="4J-5iPxQKvGVU4ECOA4h-12" value="" style="endArrow=none;html=1;rounded=0;entryX=0.5;entryY=1;entryDx=0;entryDy=0;exitX=0.75;exitY=0;exitDx=0;exitDy=0;" edge="1" parent="1" source="4J-5iPxQKvGVU4ECOA4h-3" target="4J-5iPxQKvGVU4ECOA4h-7">
          <mxGeometry width="50" height="50" relative="1" as="geometry">
            <mxPoint x="1400" y="270" as="sourcePoint" />
            <mxPoint x="1270" y="285" as="targetPoint" />
          </mxGeometry>
        </mxCell>
        <mxCell id="4J-5iPxQKvGVU4ECOA4h-13" value="" style="endArrow=none;html=1;rounded=0;entryX=0;entryY=0.5;entryDx=0;entryDy=0;exitX=1.011;exitY=0.452;exitDx=0;exitDy=0;exitPerimeter=0;" edge="1" parent="1" source="4J-5iPxQKvGVU4ECOA4h-3" target="4J-5iPxQKvGVU4ECOA4h-8">
          <mxGeometry width="50" height="50" relative="1" as="geometry">
            <mxPoint x="1400" y="280" as="sourcePoint" />
            <mxPoint x="1530" y="230" as="targetPoint" />
          </mxGeometry>
        </mxCell>
        <mxCell id="4J-5iPxQKvGVU4ECOA4h-14" value="Apartmnet" style="rounded=1;whiteSpace=wrap;html=1;" vertex="1" parent="1">
          <mxGeometry x="550" y="250" width="120" height="50" as="geometry" />
        </mxCell>
        <mxCell id="4J-5iPxQKvGVU4ECOA4h-15" value="Amenities" style="ellipse;whiteSpace=wrap;html=1;" vertex="1" parent="1">
          <mxGeometry x="550" y="120" width="120" height="50" as="geometry" />
        </mxCell>
        <mxCell id="4J-5iPxQKvGVU4ECOA4h-16" value="Floors" style="ellipse;whiteSpace=wrap;html=1;" vertex="1" parent="1">
          <mxGeometry x="390" y="150" width="120" height="50" as="geometry" />
        </mxCell>
        <mxCell id="4J-5iPxQKvGVU4ECOA4h-17" value="number_of_rooms" style="ellipse;whiteSpace=wrap;html=1;" vertex="1" parent="1">
          <mxGeometry x="390" y="230" width="120" height="50" as="geometry" />
        </mxCell>
        <mxCell id="4J-5iPxQKvGVU4ECOA4h-18" value="Safety_and_Security" style="ellipse;whiteSpace=wrap;html=1;" vertex="1" parent="1">
          <mxGeometry x="710" y="150" width="120" height="50" as="geometry" />
        </mxCell>
        <mxCell id="4J-5iPxQKvGVU4ECOA4h-20" value="" style="endArrow=none;html=1;rounded=0;exitX=0.5;exitY=0;exitDx=0;exitDy=0;entryX=0.5;entryY=1;entryDx=0;entryDy=0;" edge="1" parent="1" source="4J-5iPxQKvGVU4ECOA4h-14" target="4J-5iPxQKvGVU4ECOA4h-15">
          <mxGeometry width="50" height="50" relative="1" as="geometry">
            <mxPoint x="620" y="-80" as="sourcePoint" />
            <mxPoint x="670" y="-130" as="targetPoint" />
          </mxGeometry>
        </mxCell>
        <mxCell id="4J-5iPxQKvGVU4ECOA4h-21" value="" style="endArrow=none;html=1;rounded=0;entryX=0.5;entryY=1;entryDx=0;entryDy=0;exitX=0.25;exitY=0;exitDx=0;exitDy=0;" edge="1" parent="1" source="4J-5iPxQKvGVU4ECOA4h-14" target="4J-5iPxQKvGVU4ECOA4h-16">
          <mxGeometry width="50" height="50" relative="1" as="geometry">
            <mxPoint x="610" y="250" as="sourcePoint" />
            <mxPoint x="620" y="180" as="targetPoint" />
          </mxGeometry>
        </mxCell>
        <mxCell id="4J-5iPxQKvGVU4ECOA4h-22" value="" style="endArrow=none;html=1;rounded=0;entryX=1;entryY=0.5;entryDx=0;entryDy=0;exitX=0;exitY=0.5;exitDx=0;exitDy=0;" edge="1" parent="1" source="4J-5iPxQKvGVU4ECOA4h-14" target="4J-5iPxQKvGVU4ECOA4h-17">
          <mxGeometry width="50" height="50" relative="1" as="geometry">
            <mxPoint x="590" y="260" as="sourcePoint" />
            <mxPoint x="460" y="210" as="targetPoint" />
          </mxGeometry>
        </mxCell>
        <mxCell id="4J-5iPxQKvGVU4ECOA4h-23" value="" style="endArrow=none;html=1;rounded=0;entryX=0.5;entryY=1;entryDx=0;entryDy=0;exitX=0.75;exitY=0;exitDx=0;exitDy=0;" edge="1" parent="1" source="4J-5iPxQKvGVU4ECOA4h-14" target="4J-5iPxQKvGVU4ECOA4h-18">
          <mxGeometry width="50" height="50" relative="1" as="geometry">
            <mxPoint x="650" y="250" as="sourcePoint" />
            <mxPoint x="520" y="265" as="targetPoint" />
          </mxGeometry>
        </mxCell>
        <mxCell id="4J-5iPxQKvGVU4ECOA4h-25" value="Commercial_building" style="rounded=1;whiteSpace=wrap;html=1;" vertex="1" parent="1">
          <mxGeometry x="585" y="550" width="120" height="50" as="geometry" />
        </mxCell>
        <mxCell id="4J-5iPxQKvGVU4ECOA4h-26" value="business_type" style="ellipse;whiteSpace=wrap;html=1;" vertex="1" parent="1">
          <mxGeometry x="585" y="420" width="120" height="50" as="geometry" />
        </mxCell>
        <mxCell id="4J-5iPxQKvGVU4ECOA4h-27" value="Parking_Size" style="ellipse;whiteSpace=wrap;html=1;" vertex="1" parent="1">
          <mxGeometry x="460" y="440" width="120" height="50" as="geometry" />
        </mxCell>
        <mxCell id="4J-5iPxQKvGVU4ECOA4h-28" value="Accessibilty" style="ellipse;whiteSpace=wrap;html=1;" vertex="1" parent="1">
          <mxGeometry x="425" y="530" width="120" height="50" as="geometry" />
        </mxCell>
        <mxCell id="4J-5iPxQKvGVU4ECOA4h-30" value="" style="endArrow=none;html=1;rounded=0;exitX=0.5;exitY=0;exitDx=0;exitDy=0;entryX=0.5;entryY=1;entryDx=0;entryDy=0;" edge="1" parent="1" source="4J-5iPxQKvGVU4ECOA4h-25" target="4J-5iPxQKvGVU4ECOA4h-26">
          <mxGeometry width="50" height="50" relative="1" as="geometry">
            <mxPoint x="655" y="220" as="sourcePoint" />
            <mxPoint x="705" y="170" as="targetPoint" />
          </mxGeometry>
        </mxCell>
        <mxCell id="4J-5iPxQKvGVU4ECOA4h-31" value="" style="endArrow=none;html=1;rounded=0;entryX=0.5;entryY=1;entryDx=0;entryDy=0;exitX=0.25;exitY=0;exitDx=0;exitDy=0;" edge="1" parent="1" source="4J-5iPxQKvGVU4ECOA4h-25" target="4J-5iPxQKvGVU4ECOA4h-27">
          <mxGeometry width="50" height="50" relative="1" as="geometry">
            <mxPoint x="645" y="550" as="sourcePoint" />
            <mxPoint x="655" y="480" as="targetPoint" />
          </mxGeometry>
        </mxCell>
        <mxCell id="4J-5iPxQKvGVU4ECOA4h-32" value="" style="endArrow=none;html=1;rounded=0;entryX=1;entryY=0.5;entryDx=0;entryDy=0;exitX=0;exitY=0.5;exitDx=0;exitDy=0;" edge="1" parent="1" source="4J-5iPxQKvGVU4ECOA4h-25" target="4J-5iPxQKvGVU4ECOA4h-28">
          <mxGeometry width="50" height="50" relative="1" as="geometry">
            <mxPoint x="625" y="560" as="sourcePoint" />
            <mxPoint x="495" y="510" as="targetPoint" />
          </mxGeometry>
        </mxCell>
        <mxCell id="4J-5iPxQKvGVU4ECOA4h-34" value="Land" style="rounded=1;whiteSpace=wrap;html=1;" vertex="1" parent="1">
          <mxGeometry x="630" y="900" width="120" height="50" as="geometry" />
        </mxCell>
        <mxCell id="4J-5iPxQKvGVU4ECOA4h-35" value="Topography" style="ellipse;whiteSpace=wrap;html=1;" vertex="1" parent="1">
          <mxGeometry x="630" y="770" width="120" height="50" as="geometry" />
        </mxCell>
        <mxCell id="4J-5iPxQKvGVU4ECOA4h-36" value="Development_Potential" style="ellipse;whiteSpace=wrap;html=1;" vertex="1" parent="1">
          <mxGeometry x="505" y="790" width="120" height="50" as="geometry" />
        </mxCell>
        <mxCell id="4J-5iPxQKvGVU4ECOA4h-37" value="Land_Type" style="ellipse;whiteSpace=wrap;html=1;" vertex="1" parent="1">
          <mxGeometry x="470" y="880" width="120" height="50" as="geometry" />
        </mxCell>
        <mxCell id="4J-5iPxQKvGVU4ECOA4h-38" value="" style="endArrow=none;html=1;rounded=0;exitX=0.5;exitY=0;exitDx=0;exitDy=0;entryX=0.5;entryY=1;entryDx=0;entryDy=0;" edge="1" parent="1" source="4J-5iPxQKvGVU4ECOA4h-34" target="4J-5iPxQKvGVU4ECOA4h-35">
          <mxGeometry width="50" height="50" relative="1" as="geometry">
            <mxPoint x="700" y="570" as="sourcePoint" />
            <mxPoint x="750" y="520" as="targetPoint" />
          </mxGeometry>
        </mxCell>
        <mxCell id="4J-5iPxQKvGVU4ECOA4h-39" value="" style="endArrow=none;html=1;rounded=0;entryX=0.5;entryY=1;entryDx=0;entryDy=0;exitX=0.25;exitY=0;exitDx=0;exitDy=0;" edge="1" parent="1" source="4J-5iPxQKvGVU4ECOA4h-34" target="4J-5iPxQKvGVU4ECOA4h-36">
          <mxGeometry width="50" height="50" relative="1" as="geometry">
            <mxPoint x="690" y="900" as="sourcePoint" />
            <mxPoint x="700" y="830" as="targetPoint" />
          </mxGeometry>
        </mxCell>
        <mxCell id="4J-5iPxQKvGVU4ECOA4h-40" value="" style="endArrow=none;html=1;rounded=0;entryX=1;entryY=0.5;entryDx=0;entryDy=0;exitX=0;exitY=0.5;exitDx=0;exitDy=0;" edge="1" parent="1" source="4J-5iPxQKvGVU4ECOA4h-34" target="4J-5iPxQKvGVU4ECOA4h-37">
          <mxGeometry width="50" height="50" relative="1" as="geometry">
            <mxPoint x="670" y="910" as="sourcePoint" />
            <mxPoint x="540" y="860" as="targetPoint" />
          </mxGeometry>
        </mxCell>
        <mxCell id="4J-5iPxQKvGVU4ECOA4h-41" value="Vacation_Home" style="rounded=1;whiteSpace=wrap;html=1;" vertex="1" parent="1">
          <mxGeometry x="1820" y="500" width="120" height="50" as="geometry" />
        </mxCell>
        <mxCell id="4J-5iPxQKvGVU4ECOA4h-42" value="No_of_rooms" style="ellipse;whiteSpace=wrap;html=1;" vertex="1" parent="1">
          <mxGeometry x="1820" y="370" width="120" height="50" as="geometry" />
        </mxCell>
        <mxCell id="4J-5iPxQKvGVU4ECOA4h-43" value="Views" style="ellipse;whiteSpace=wrap;html=1;" vertex="1" parent="1">
          <mxGeometry x="1660" y="400" width="120" height="50" as="geometry" />
        </mxCell>
        <mxCell id="4J-5iPxQKvGVU4ECOA4h-44" value="Swimming_Pool" style="ellipse;whiteSpace=wrap;html=1;" vertex="1" parent="1">
          <mxGeometry x="1660" y="480" width="120" height="50" as="geometry" />
        </mxCell>
        <mxCell id="4J-5iPxQKvGVU4ECOA4h-45" value="Amenities" style="ellipse;whiteSpace=wrap;html=1;" vertex="1" parent="1">
          <mxGeometry x="1980" y="400" width="120" height="50" as="geometry" />
        </mxCell>
        <mxCell id="4J-5iPxQKvGVU4ECOA4h-47" value="" style="endArrow=none;html=1;rounded=0;entryX=0.5;entryY=1;entryDx=0;entryDy=0;" edge="1" parent="1" source="4J-5iPxQKvGVU4ECOA4h-41" target="4J-5iPxQKvGVU4ECOA4h-42">
          <mxGeometry width="50" height="50" relative="1" as="geometry">
            <mxPoint x="1890" y="170" as="sourcePoint" />
            <mxPoint x="1940" y="120" as="targetPoint" />
          </mxGeometry>
        </mxCell>
        <mxCell id="4J-5iPxQKvGVU4ECOA4h-48" value="" style="endArrow=none;html=1;rounded=0;entryX=0.5;entryY=1;entryDx=0;entryDy=0;exitX=0.25;exitY=0;exitDx=0;exitDy=0;" edge="1" parent="1" source="4J-5iPxQKvGVU4ECOA4h-41" target="4J-5iPxQKvGVU4ECOA4h-43">
          <mxGeometry width="50" height="50" relative="1" as="geometry">
            <mxPoint x="1880" y="500" as="sourcePoint" />
            <mxPoint x="1890" y="430" as="targetPoint" />
          </mxGeometry>
        </mxCell>
        <mxCell id="4J-5iPxQKvGVU4ECOA4h-49" value="" style="endArrow=none;html=1;rounded=0;entryX=1;entryY=0.5;entryDx=0;entryDy=0;exitX=0;exitY=0.5;exitDx=0;exitDy=0;" edge="1" parent="1" source="4J-5iPxQKvGVU4ECOA4h-41" target="4J-5iPxQKvGVU4ECOA4h-44">
          <mxGeometry width="50" height="50" relative="1" as="geometry">
            <mxPoint x="1860" y="510" as="sourcePoint" />
            <mxPoint x="1730" y="460" as="targetPoint" />
          </mxGeometry>
        </mxCell>
        <mxCell id="4J-5iPxQKvGVU4ECOA4h-50" value="" style="endArrow=none;html=1;rounded=0;entryX=0.5;entryY=1;entryDx=0;entryDy=0;exitX=0.75;exitY=0;exitDx=0;exitDy=0;" edge="1" parent="1" source="4J-5iPxQKvGVU4ECOA4h-41" target="4J-5iPxQKvGVU4ECOA4h-45">
          <mxGeometry width="50" height="50" relative="1" as="geometry">
            <mxPoint x="1920" y="500" as="sourcePoint" />
            <mxPoint x="1790" y="515" as="targetPoint" />
          </mxGeometry>
        </mxCell>
        <mxCell id="4J-5iPxQKvGVU4ECOA4h-53" value="ISA" style="triangle;whiteSpace=wrap;html=1;direction=south;" vertex="1" parent="1">
          <mxGeometry x="1290" y="560" width="80" height="60" as="geometry" />
        </mxCell>
        <mxCell id="4J-5iPxQKvGVU4ECOA4h-54" value="" style="endArrow=none;html=1;rounded=0;entryX=0.5;entryY=1;entryDx=0;entryDy=0;exitX=0.5;exitY=1;exitDx=0;exitDy=0;" edge="1" parent="1" source="4J-5iPxQKvGVU4ECOA4h-53" target="4J-5iPxQKvGVU4ECOA4h-14">
          <mxGeometry width="50" height="50" relative="1" as="geometry">
            <mxPoint x="1670" y="760" as="sourcePoint" />
            <mxPoint x="1720" y="710" as="targetPoint" />
          </mxGeometry>
        </mxCell>
        <mxCell id="4J-5iPxQKvGVU4ECOA4h-55" value="" style="endArrow=none;html=1;rounded=0;entryX=1;entryY=0.5;entryDx=0;entryDy=0;exitX=0.5;exitY=1;exitDx=0;exitDy=0;" edge="1" parent="1" source="4J-5iPxQKvGVU4ECOA4h-53" target="4J-5iPxQKvGVU4ECOA4h-25">
          <mxGeometry width="50" height="50" relative="1" as="geometry">
            <mxPoint x="1305" y="574" as="sourcePoint" />
            <mxPoint x="620" y="310" as="targetPoint" />
          </mxGeometry>
        </mxCell>
        <mxCell id="4J-5iPxQKvGVU4ECOA4h-56" value="" style="endArrow=none;html=1;rounded=0;entryX=1;entryY=0.5;entryDx=0;entryDy=0;exitX=0.5;exitY=1;exitDx=0;exitDy=0;" edge="1" parent="1" source="4J-5iPxQKvGVU4ECOA4h-53" target="4J-5iPxQKvGVU4ECOA4h-34">
          <mxGeometry width="50" height="50" relative="1" as="geometry">
            <mxPoint x="1320" y="600" as="sourcePoint" />
            <mxPoint x="715" y="585" as="targetPoint" />
          </mxGeometry>
        </mxCell>
        <mxCell id="4J-5iPxQKvGVU4ECOA4h-57" value="" style="endArrow=none;html=1;rounded=0;entryX=0.5;entryY=1;entryDx=0;entryDy=0;exitX=0;exitY=0.5;exitDx=0;exitDy=0;" edge="1" parent="1" source="4J-5iPxQKvGVU4ECOA4h-53" target="4J-5iPxQKvGVU4ECOA4h-3">
          <mxGeometry width="50" height="50" relative="1" as="geometry">
            <mxPoint x="1320" y="600" as="sourcePoint" />
            <mxPoint x="620" y="310" as="targetPoint" />
          </mxGeometry>
        </mxCell>
        <mxCell id="4J-5iPxQKvGVU4ECOA4h-59" value="" style="endArrow=none;html=1;rounded=0;entryX=0;entryY=0.75;entryDx=0;entryDy=0;exitX=0.004;exitY=0.02;exitDx=0;exitDy=0;exitPerimeter=0;" edge="1" parent="1" source="4J-5iPxQKvGVU4ECOA4h-53" target="4J-5iPxQKvGVU4ECOA4h-41">
          <mxGeometry width="50" height="50" relative="1" as="geometry">
            <mxPoint x="1380" y="570" as="sourcePoint" />
            <mxPoint x="1820" y="538" as="targetPoint" />
          </mxGeometry>
        </mxCell>
        <mxCell id="4J-5iPxQKvGVU4ECOA4h-60" value="Property" style="rounded=1;whiteSpace=wrap;html=1;" vertex="1" parent="1">
          <mxGeometry x="1270" y="1110" width="120" height="50" as="geometry" />
        </mxCell>
        <mxCell id="4J-5iPxQKvGVU4ECOA4h-62" value="" style="shape=link;html=1;rounded=0;exitX=1;exitY=0.5;exitDx=0;exitDy=0;entryX=0.5;entryY=0;entryDx=0;entryDy=0;" edge="1" parent="1" source="4J-5iPxQKvGVU4ECOA4h-53" target="4J-5iPxQKvGVU4ECOA4h-60">
          <mxGeometry width="100" relative="1" as="geometry">
            <mxPoint x="1440" y="990" as="sourcePoint" />
            <mxPoint x="1540" y="990" as="targetPoint" />
          </mxGeometry>
        </mxCell>
        <mxCell id="4J-5iPxQKvGVU4ECOA4h-63" value="&lt;b&gt;property_id&lt;/b&gt;" style="ellipse;whiteSpace=wrap;html=1;" vertex="1" parent="1">
          <mxGeometry x="1040" y="1030" width="120" height="50" as="geometry" />
        </mxCell>
        <mxCell id="4J-5iPxQKvGVU4ECOA4h-64" value="" style="endArrow=none;html=1;rounded=0;exitX=0.5;exitY=1;exitDx=0;exitDy=0;entryX=0;entryY=0.25;entryDx=0;entryDy=0;" edge="1" parent="1" source="4J-5iPxQKvGVU4ECOA4h-63" target="4J-5iPxQKvGVU4ECOA4h-60">
          <mxGeometry width="50" height="50" relative="1" as="geometry">
            <mxPoint x="700" y="910" as="sourcePoint" />
            <mxPoint x="700" y="830" as="targetPoint" />
          </mxGeometry>
        </mxCell>
        <mxCell id="4J-5iPxQKvGVU4ECOA4h-65" value="square_Foot" style="ellipse;whiteSpace=wrap;html=1;" vertex="1" parent="1">
          <mxGeometry x="940" y="1080" width="120" height="50" as="geometry" />
        </mxCell>
        <mxCell id="4J-5iPxQKvGVU4ECOA4h-66" value="" style="endArrow=none;html=1;rounded=0;exitX=1;exitY=0.5;exitDx=0;exitDy=0;entryX=0;entryY=0.5;entryDx=0;entryDy=0;" edge="1" parent="1" source="4J-5iPxQKvGVU4ECOA4h-65" target="4J-5iPxQKvGVU4ECOA4h-60">
          <mxGeometry width="50" height="50" relative="1" as="geometry">
            <mxPoint x="1110" y="1090" as="sourcePoint" />
            <mxPoint x="1280" y="1133" as="targetPoint" />
          </mxGeometry>
        </mxCell>
        <mxCell id="4J-5iPxQKvGVU4ECOA4h-67" value="property_type" style="ellipse;whiteSpace=wrap;html=1;" vertex="1" parent="1">
          <mxGeometry x="880" y="1150" width="120" height="50" as="geometry" />
        </mxCell>
        <mxCell id="4J-5iPxQKvGVU4ECOA4h-69" value="description" style="ellipse;whiteSpace=wrap;html=1;" vertex="1" parent="1">
          <mxGeometry x="1130" y="1215" width="120" height="50" as="geometry" />
        </mxCell>
        <mxCell id="4J-5iPxQKvGVU4ECOA4h-70" value="" style="endArrow=none;html=1;rounded=0;exitX=0.5;exitY=0;exitDx=0;exitDy=0;entryX=0.5;entryY=1;entryDx=0;entryDy=0;" edge="1" parent="1" source="4J-5iPxQKvGVU4ECOA4h-69" target="4J-5iPxQKvGVU4ECOA4h-60">
          <mxGeometry width="50" height="50" relative="1" as="geometry">
            <mxPoint x="1120" y="1210" as="sourcePoint" />
            <mxPoint x="1280" y="1170" as="targetPoint" />
          </mxGeometry>
        </mxCell>
        <mxCell id="4J-5iPxQKvGVU4ECOA4h-73" value="availabilty" style="ellipse;whiteSpace=wrap;html=1;" vertex="1" parent="1">
          <mxGeometry x="1410" y="1030" width="120" height="50" as="geometry" />
        </mxCell>
        <mxCell id="4J-5iPxQKvGVU4ECOA4h-74" value="" style="endArrow=none;html=1;rounded=0;exitX=0.5;exitY=1;exitDx=0;exitDy=0;entryX=0.75;entryY=0;entryDx=0;entryDy=0;" edge="1" parent="1" source="4J-5iPxQKvGVU4ECOA4h-73" target="4J-5iPxQKvGVU4ECOA4h-60">
          <mxGeometry width="50" height="50" relative="1" as="geometry">
            <mxPoint x="1440" y="1240" as="sourcePoint" />
            <mxPoint x="1370" y="1170" as="targetPoint" />
          </mxGeometry>
        </mxCell>
        <mxCell id="4J-5iPxQKvGVU4ECOA4h-75" value="Dejoint" style="text;html=1;align=center;verticalAlign=middle;resizable=0;points=[];autosize=1;strokeColor=none;fillColor=none;" vertex="1" parent="1">
          <mxGeometry x="1350" y="595" width="60" height="30" as="geometry" />
        </mxCell>
        <mxCell id="4J-5iPxQKvGVU4ECOA4h-76" value="Utilites" style="rounded=1;whiteSpace=wrap;html=1;" vertex="1" parent="1">
          <mxGeometry x="2200" y="1200" width="120" height="50" as="geometry" />
        </mxCell>
        <mxCell id="4J-5iPxQKvGVU4ECOA4h-77" value="wifi_bill" style="ellipse;whiteSpace=wrap;html=1;" vertex="1" parent="1">
          <mxGeometry x="2200" y="1070" width="120" height="50" as="geometry" />
        </mxCell>
        <mxCell id="4J-5iPxQKvGVU4ECOA4h-78" value="gas_bill" style="ellipse;whiteSpace=wrap;html=1;" vertex="1" parent="1">
          <mxGeometry x="2040" y="1100" width="120" height="50" as="geometry" />
        </mxCell>
        <mxCell id="4J-5iPxQKvGVU4ECOA4h-79" value="electricity_bill" style="ellipse;whiteSpace=wrap;html=1;" vertex="1" parent="1">
          <mxGeometry x="2040" y="1180" width="120" height="50" as="geometry" />
        </mxCell>
        <mxCell id="4J-5iPxQKvGVU4ECOA4h-81" value="" style="endArrow=none;html=1;rounded=0;entryX=0.5;entryY=1;entryDx=0;entryDy=0;" edge="1" parent="1" source="4J-5iPxQKvGVU4ECOA4h-76" target="4J-5iPxQKvGVU4ECOA4h-77">
          <mxGeometry width="50" height="50" relative="1" as="geometry">
            <mxPoint x="2270" y="870" as="sourcePoint" />
            <mxPoint x="2320" y="820" as="targetPoint" />
          </mxGeometry>
        </mxCell>
        <mxCell id="4J-5iPxQKvGVU4ECOA4h-82" value="" style="endArrow=none;html=1;rounded=0;entryX=0.5;entryY=1;entryDx=0;entryDy=0;exitX=0.25;exitY=0;exitDx=0;exitDy=0;" edge="1" parent="1" source="4J-5iPxQKvGVU4ECOA4h-76" target="4J-5iPxQKvGVU4ECOA4h-78">
          <mxGeometry width="50" height="50" relative="1" as="geometry">
            <mxPoint x="2260" y="1200" as="sourcePoint" />
            <mxPoint x="2270" y="1130" as="targetPoint" />
          </mxGeometry>
        </mxCell>
        <mxCell id="4J-5iPxQKvGVU4ECOA4h-83" value="" style="endArrow=none;html=1;rounded=0;entryX=1;entryY=0.5;entryDx=0;entryDy=0;exitX=0;exitY=0.5;exitDx=0;exitDy=0;" edge="1" parent="1" source="4J-5iPxQKvGVU4ECOA4h-76" target="4J-5iPxQKvGVU4ECOA4h-79">
          <mxGeometry width="50" height="50" relative="1" as="geometry">
            <mxPoint x="2240" y="1210" as="sourcePoint" />
            <mxPoint x="2110" y="1160" as="targetPoint" />
          </mxGeometry>
        </mxCell>
        <mxCell id="4J-5iPxQKvGVU4ECOA4h-86" value="" style="endArrow=none;html=1;rounded=0;exitX=0.5;exitY=0;exitDx=0;exitDy=0;" edge="1" parent="1" source="4J-5iPxQKvGVU4ECOA4h-87" target="4J-5iPxQKvGVU4ECOA4h-76">
          <mxGeometry width="50" height="50" relative="1" as="geometry">
            <mxPoint x="2100" y="1340" as="sourcePoint" />
            <mxPoint x="2220" y="1260" as="targetPoint" />
          </mxGeometry>
        </mxCell>
        <mxCell id="4J-5iPxQKvGVU4ECOA4h-87" value="Has" style="rhombus;whiteSpace=wrap;html=1;" vertex="1" parent="1">
          <mxGeometry x="2110" y="1340" width="80" height="80" as="geometry" />
        </mxCell>
        <mxCell id="4J-5iPxQKvGVU4ECOA4h-88" value="Has" style="rhombus;whiteSpace=wrap;html=1;" vertex="1" parent="1">
          <mxGeometry x="2310" y="1345" width="80" height="80" as="geometry" />
        </mxCell>
        <mxCell id="4J-5iPxQKvGVU4ECOA4h-89" value="" style="endArrow=none;html=1;rounded=0;entryX=1;entryY=0.75;entryDx=0;entryDy=0;exitX=0.5;exitY=0;exitDx=0;exitDy=0;" edge="1" parent="1" source="4J-5iPxQKvGVU4ECOA4h-88" target="4J-5iPxQKvGVU4ECOA4h-76">
          <mxGeometry width="50" height="50" relative="1" as="geometry">
            <mxPoint x="2110" y="1350" as="sourcePoint" />
            <mxPoint x="2210" y="1248" as="targetPoint" />
          </mxGeometry>
        </mxCell>
        <mxCell id="4J-5iPxQKvGVU4ECOA4h-90" value="Costs" style="rhombus;whiteSpace=wrap;html=1;" vertex="1" parent="1">
          <mxGeometry x="1780" y="1635" width="80" height="80" as="geometry" />
        </mxCell>
        <mxCell id="4J-5iPxQKvGVU4ECOA4h-92" value="" style="endArrow=none;html=1;rounded=0;entryX=0;entryY=0.75;entryDx=0;entryDy=0;exitX=0.5;exitY=0;exitDx=0;exitDy=0;" edge="1" parent="1" source="4J-5iPxQKvGVU4ECOA4h-67" target="4J-5iPxQKvGVU4ECOA4h-60">
          <mxGeometry width="50" height="50" relative="1" as="geometry">
            <mxPoint x="1120" y="1145" as="sourcePoint" />
            <mxPoint x="1280" y="1145" as="targetPoint" />
          </mxGeometry>
        </mxCell>
        <mxCell id="4J-5iPxQKvGVU4ECOA4h-94" value="sale" style="rounded=1;whiteSpace=wrap;html=1;" vertex="1" parent="1">
          <mxGeometry x="2070" y="1645" width="120" height="60" as="geometry" />
        </mxCell>
        <mxCell id="4J-5iPxQKvGVU4ECOA4h-95" value="totla_price" style="ellipse;whiteSpace=wrap;html=1;" vertex="1" parent="1">
          <mxGeometry x="2000" y="1770" width="120" height="50" as="geometry" />
        </mxCell>
        <mxCell id="4J-5iPxQKvGVU4ECOA4h-97" value="" style="endArrow=none;html=1;rounded=0;entryX=0.5;entryY=1;entryDx=0;entryDy=0;exitX=0.5;exitY=0;exitDx=0;exitDy=0;" edge="1" parent="1" source="4J-5iPxQKvGVU4ECOA4h-94" target="4J-5iPxQKvGVU4ECOA4h-87">
          <mxGeometry width="50" height="50" relative="1" as="geometry">
            <mxPoint x="2800" y="1480" as="sourcePoint" />
            <mxPoint x="2850" y="1430" as="targetPoint" />
          </mxGeometry>
        </mxCell>
        <mxCell id="4J-5iPxQKvGVU4ECOA4h-98" value="" style="shape=link;html=1;rounded=0;exitX=0;exitY=0.5;exitDx=0;exitDy=0;entryX=1;entryY=0.5;entryDx=0;entryDy=0;" edge="1" parent="1" source="4J-5iPxQKvGVU4ECOA4h-94" target="4J-5iPxQKvGVU4ECOA4h-90">
          <mxGeometry width="100" relative="1" as="geometry">
            <mxPoint x="2160" y="1720" as="sourcePoint" />
            <mxPoint x="2130" y="1880" as="targetPoint" />
          </mxGeometry>
        </mxCell>
        <mxCell id="4J-5iPxQKvGVU4ECOA4h-100" value="crime_rate" style="ellipse;whiteSpace=wrap;html=1;" vertex="1" parent="1">
          <mxGeometry x="2010" y="760" width="120" height="50" as="geometry" />
        </mxCell>
        <mxCell id="4J-5iPxQKvGVU4ECOA4h-101" value="neighborhood_name" style="ellipse;whiteSpace=wrap;html=1;" vertex="1" parent="1">
          <mxGeometry x="1780" y="750" width="120" height="50" as="geometry" />
        </mxCell>
        <mxCell id="4J-5iPxQKvGVU4ECOA4h-102" value="No_of_Schools" style="ellipse;whiteSpace=wrap;html=1;" vertex="1" parent="1">
          <mxGeometry x="1750" y="860" width="120" height="50" as="geometry" />
        </mxCell>
        <mxCell id="4J-5iPxQKvGVU4ECOA4h-103" value="" style="endArrow=none;html=1;rounded=0;entryX=0.5;entryY=1;entryDx=0;entryDy=0;exitX=0.75;exitY=0;exitDx=0;exitDy=0;" edge="1" parent="1" source="WouVvHNb6_mTUOxKdpXr-68" target="4J-5iPxQKvGVU4ECOA4h-100">
          <mxGeometry width="50" height="50" relative="1" as="geometry">
            <mxPoint x="2085" y="920" as="sourcePoint" />
            <mxPoint x="2060" y="470" as="targetPoint" />
          </mxGeometry>
        </mxCell>
        <mxCell id="4J-5iPxQKvGVU4ECOA4h-104" value="" style="endArrow=none;html=1;rounded=0;entryX=0.5;entryY=1;entryDx=0;entryDy=0;exitX=0.25;exitY=0;exitDx=0;exitDy=0;" edge="1" parent="1" source="WouVvHNb6_mTUOxKdpXr-68" target="4J-5iPxQKvGVU4ECOA4h-101">
          <mxGeometry width="50" height="50" relative="1" as="geometry">
            <mxPoint x="1970" y="850" as="sourcePoint" />
            <mxPoint x="2010" y="780" as="targetPoint" />
          </mxGeometry>
        </mxCell>
        <mxCell id="4J-5iPxQKvGVU4ECOA4h-105" value="" style="endArrow=none;html=1;rounded=0;entryX=1;entryY=0.5;entryDx=0;entryDy=0;exitX=0.25;exitY=0;exitDx=0;exitDy=0;" edge="1" parent="1" source="WouVvHNb6_mTUOxKdpXr-68" target="4J-5iPxQKvGVU4ECOA4h-102">
          <mxGeometry width="50" height="50" relative="1" as="geometry">
            <mxPoint x="1940" y="875" as="sourcePoint" />
            <mxPoint x="1850" y="810" as="targetPoint" />
          </mxGeometry>
        </mxCell>
        <mxCell id="4J-5iPxQKvGVU4ECOA4h-107" value="Events" style="ellipse;whiteSpace=wrap;html=1;" vertex="1" parent="1">
          <mxGeometry x="1900" y="790" width="120" height="50" as="geometry" />
        </mxCell>
        <mxCell id="4J-5iPxQKvGVU4ECOA4h-108" value="" style="endArrow=none;html=1;rounded=0;entryX=0.5;entryY=1;entryDx=0;entryDy=0;" edge="1" parent="1" source="WouVvHNb6_mTUOxKdpXr-68" target="4J-5iPxQKvGVU4ECOA4h-107">
          <mxGeometry width="50" height="50" relative="1" as="geometry">
            <mxPoint x="2060" y="887.5" as="sourcePoint" />
            <mxPoint x="1850" y="810" as="targetPoint" />
            <Array as="points" />
          </mxGeometry>
        </mxCell>
        <mxCell id="4J-5iPxQKvGVU4ECOA4h-110" value="" style="endArrow=none;html=1;rounded=0;entryX=0.5;entryY=0;entryDx=0;entryDy=0;shape=link;" edge="1" parent="1" target="WouVvHNb6_mTUOxKdpXr-72">
          <mxGeometry width="50" height="50" relative="1" as="geometry">
            <mxPoint x="2010" y="960" as="sourcePoint" />
            <mxPoint x="1770" y="1040" as="targetPoint" />
          </mxGeometry>
        </mxCell>
        <mxCell id="4J-5iPxQKvGVU4ECOA4h-111" value="" style="endArrow=none;html=1;rounded=0;entryX=0;entryY=0.5;entryDx=0;entryDy=0;exitX=1;exitY=0.5;exitDx=0;exitDy=0;shape=link;" edge="1" parent="1" source="4J-5iPxQKvGVU4ECOA4h-60" target="WouVvHNb6_mTUOxKdpXr-72">
          <mxGeometry width="50" height="50" relative="1" as="geometry">
            <mxPoint x="1930" y="830" as="sourcePoint" />
            <mxPoint x="1730" y="1080" as="targetPoint" />
          </mxGeometry>
        </mxCell>
        <mxCell id="4J-5iPxQKvGVU4ECOA4h-112" value="" style="endArrow=none;html=1;rounded=0;exitX=0;exitY=0.5;exitDx=0;exitDy=0;entryX=0.75;entryY=1;entryDx=0;entryDy=0;" edge="1" parent="1" source="4J-5iPxQKvGVU4ECOA4h-90" target="4J-5iPxQKvGVU4ECOA4h-60">
          <mxGeometry width="50" height="50" relative="1" as="geometry">
            <mxPoint x="1930" y="830" as="sourcePoint" />
            <mxPoint x="2910" y="720" as="targetPoint" />
          </mxGeometry>
        </mxCell>
        <mxCell id="4J-5iPxQKvGVU4ECOA4h-113" value="rental" style="rounded=1;whiteSpace=wrap;html=1;" vertex="1" parent="1">
          <mxGeometry x="2370" y="1655" width="120" height="60" as="geometry" />
        </mxCell>
        <mxCell id="4J-5iPxQKvGVU4ECOA4h-114" value="" style="endArrow=none;html=1;rounded=0;entryX=0.5;entryY=1;entryDx=0;entryDy=0;exitX=0.5;exitY=0;exitDx=0;exitDy=0;" edge="1" parent="1" source="4J-5iPxQKvGVU4ECOA4h-113" target="4J-5iPxQKvGVU4ECOA4h-88">
          <mxGeometry width="50" height="50" relative="1" as="geometry">
            <mxPoint x="2410" y="1950" as="sourcePoint" />
            <mxPoint x="2460" y="1900" as="targetPoint" />
          </mxGeometry>
        </mxCell>
        <mxCell id="4J-5iPxQKvGVU4ECOA4h-115" value="Monthly_Rental_Price" style="ellipse;whiteSpace=wrap;html=1;" vertex="1" parent="1">
          <mxGeometry x="2240" y="1580" width="120" height="55" as="geometry" />
        </mxCell>
        <mxCell id="4J-5iPxQKvGVU4ECOA4h-116" value="deposit" style="ellipse;whiteSpace=wrap;html=1;" vertex="1" parent="1">
          <mxGeometry x="2240" y="1690" width="120" height="55" as="geometry" />
        </mxCell>
        <mxCell id="4J-5iPxQKvGVU4ECOA4h-117" value="" style="endArrow=none;html=1;rounded=0;entryX=0.5;entryY=1;entryDx=0;entryDy=0;exitX=0;exitY=0.5;exitDx=0;exitDy=0;" edge="1" parent="1" source="4J-5iPxQKvGVU4ECOA4h-113" target="4J-5iPxQKvGVU4ECOA4h-115">
          <mxGeometry width="50" height="50" relative="1" as="geometry">
            <mxPoint x="2430" y="1690" as="sourcePoint" />
            <mxPoint x="2480" y="1640" as="targetPoint" />
          </mxGeometry>
        </mxCell>
        <mxCell id="4J-5iPxQKvGVU4ECOA4h-118" value="" style="endArrow=none;html=1;rounded=0;entryX=0.5;entryY=0;entryDx=0;entryDy=0;exitX=0;exitY=0.5;exitDx=0;exitDy=0;" edge="1" parent="1" source="4J-5iPxQKvGVU4ECOA4h-113" target="4J-5iPxQKvGVU4ECOA4h-116">
          <mxGeometry width="50" height="50" relative="1" as="geometry">
            <mxPoint x="2400" y="1695" as="sourcePoint" />
            <mxPoint x="2310" y="1645" as="targetPoint" />
          </mxGeometry>
        </mxCell>
        <mxCell id="4J-5iPxQKvGVU4ECOA4h-119" value="" style="endArrow=none;html=1;rounded=0;" edge="1" parent="1" target="4J-5iPxQKvGVU4ECOA4h-120">
          <mxGeometry width="50" height="50" relative="1" as="geometry">
            <mxPoint x="2370" y="1690" as="sourcePoint" />
            <mxPoint x="2430" y="1810" as="targetPoint" />
          </mxGeometry>
        </mxCell>
        <mxCell id="4J-5iPxQKvGVU4ECOA4h-120" value="With" style="rhombus;whiteSpace=wrap;html=1;" vertex="1" parent="1">
          <mxGeometry x="1810" y="1420" width="80" height="80" as="geometry" />
        </mxCell>
        <mxCell id="4J-5iPxQKvGVU4ECOA4h-121" value="" style="endArrow=none;html=1;rounded=0;entryX=0;entryY=0.5;entryDx=0;entryDy=0;exitX=0.75;exitY=1;exitDx=0;exitDy=0;" edge="1" parent="1" source="4J-5iPxQKvGVU4ECOA4h-60" target="4J-5iPxQKvGVU4ECOA4h-120">
          <mxGeometry width="50" height="50" relative="1" as="geometry">
            <mxPoint x="3260" y="580" as="sourcePoint" />
            <mxPoint x="3190" y="1020" as="targetPoint" />
          </mxGeometry>
        </mxCell>
        <mxCell id="4J-5iPxQKvGVU4ECOA4h-122" value="Name" style="ellipse;whiteSpace=wrap;html=1;" vertex="1" parent="1">
          <mxGeometry x="-1130" y="220" width="120" height="50" as="geometry" />
        </mxCell>
        <mxCell id="4J-5iPxQKvGVU4ECOA4h-123" value="First_name" style="ellipse;whiteSpace=wrap;html=1;" vertex="1" parent="1">
          <mxGeometry x="-1190" y="120" width="120" height="60" as="geometry" />
        </mxCell>
        <mxCell id="4J-5iPxQKvGVU4ECOA4h-124" value="Middle_name" style="ellipse;whiteSpace=wrap;html=1;" vertex="1" parent="1">
          <mxGeometry x="-1080" y="80" width="120" height="60" as="geometry" />
        </mxCell>
        <mxCell id="4J-5iPxQKvGVU4ECOA4h-125" value="Last_name" style="ellipse;whiteSpace=wrap;html=1;" vertex="1" parent="1">
          <mxGeometry x="-1005" y="140" width="120" height="60" as="geometry" />
        </mxCell>
        <mxCell id="4J-5iPxQKvGVU4ECOA4h-126" value="" style="endArrow=none;html=1;rounded=0;entryX=0.5;entryY=1;entryDx=0;entryDy=0;exitX=0;exitY=0;exitDx=0;exitDy=0;" edge="1" parent="1" source="4J-5iPxQKvGVU4ECOA4h-122" target="4J-5iPxQKvGVU4ECOA4h-123">
          <mxGeometry width="50" height="50" relative="1" as="geometry">
            <mxPoint x="-1665" y="420" as="sourcePoint" />
            <mxPoint x="-1615" y="370" as="targetPoint" />
          </mxGeometry>
        </mxCell>
        <mxCell id="4J-5iPxQKvGVU4ECOA4h-127" value="" style="endArrow=none;html=1;rounded=0;entryX=0.5;entryY=1;entryDx=0;entryDy=0;exitX=0.5;exitY=0;exitDx=0;exitDy=0;" edge="1" parent="1" source="4J-5iPxQKvGVU4ECOA4h-122" target="4J-5iPxQKvGVU4ECOA4h-124">
          <mxGeometry width="50" height="50" relative="1" as="geometry">
            <mxPoint x="-1028" y="138" as="sourcePoint" />
            <mxPoint x="-1165" y="60" as="targetPoint" />
          </mxGeometry>
        </mxCell>
        <mxCell id="4J-5iPxQKvGVU4ECOA4h-128" value="" style="endArrow=none;html=1;rounded=0;entryX=0;entryY=1;entryDx=0;entryDy=0;exitX=1;exitY=0;exitDx=0;exitDy=0;" edge="1" parent="1" source="4J-5iPxQKvGVU4ECOA4h-122" target="4J-5iPxQKvGVU4ECOA4h-125">
          <mxGeometry width="50" height="50" relative="1" as="geometry">
            <mxPoint x="-995" y="120" as="sourcePoint" />
            <mxPoint x="-995" y="40" as="targetPoint" />
          </mxGeometry>
        </mxCell>
        <mxCell id="4J-5iPxQKvGVU4ECOA4h-130" value="" style="shape=link;html=1;rounded=0;entryX=0.5;entryY=1;entryDx=0;entryDy=0;exitX=0;exitY=0.5;exitDx=0;exitDy=0;" edge="1" parent="1" source="4J-5iPxQKvGVU4ECOA4h-141" target="4J-5iPxQKvGVU4ECOA4h-131">
          <mxGeometry width="100" relative="1" as="geometry">
            <mxPoint x="-1075" y="630" as="sourcePoint" />
            <mxPoint x="-1585" y="390" as="targetPoint" />
          </mxGeometry>
        </mxCell>
        <mxCell id="4J-5iPxQKvGVU4ECOA4h-131" value="User" style="rounded=1;whiteSpace=wrap;html=1;" vertex="1" parent="1">
          <mxGeometry x="-1125" y="300" width="120" height="60" as="geometry" />
        </mxCell>
        <mxCell id="4J-5iPxQKvGVU4ECOA4h-133" value="&lt;u&gt;&lt;b&gt;user_id&lt;/b&gt;&lt;/u&gt;" style="ellipse;whiteSpace=wrap;html=1;" vertex="1" parent="1">
          <mxGeometry x="-1275" y="310" width="120" height="60" as="geometry" />
        </mxCell>
        <mxCell id="4J-5iPxQKvGVU4ECOA4h-134" value="email" style="ellipse;whiteSpace=wrap;html=1;" vertex="1" parent="1">
          <mxGeometry x="-970" y="210" width="120" height="60" as="geometry" />
        </mxCell>
        <mxCell id="4J-5iPxQKvGVU4ECOA4h-135" value="password" style="ellipse;whiteSpace=wrap;html=1;" vertex="1" parent="1">
          <mxGeometry x="-945" y="280" width="120" height="60" as="geometry" />
        </mxCell>
        <mxCell id="4J-5iPxQKvGVU4ECOA4h-136" value="" style="endArrow=none;html=1;rounded=0;entryX=0.5;entryY=1;entryDx=0;entryDy=0;exitX=0.5;exitY=0;exitDx=0;exitDy=0;" edge="1" parent="1" source="4J-5iPxQKvGVU4ECOA4h-131" target="4J-5iPxQKvGVU4ECOA4h-122">
          <mxGeometry width="50" height="50" relative="1" as="geometry">
            <mxPoint x="-1755" y="390" as="sourcePoint" />
            <mxPoint x="-1705" y="340" as="targetPoint" />
          </mxGeometry>
        </mxCell>
        <mxCell id="4J-5iPxQKvGVU4ECOA4h-137" value="" style="endArrow=none;html=1;rounded=0;entryX=0.25;entryY=1;entryDx=0;entryDy=0;exitX=1;exitY=0;exitDx=0;exitDy=0;" edge="1" parent="1" source="XY98v9Uh_zNNZ0nDO3fT-4" target="4J-5iPxQKvGVU4ECOA4h-131">
          <mxGeometry width="50" height="50" relative="1" as="geometry">
            <mxPoint x="-1055" y="310" as="sourcePoint" />
            <mxPoint x="-1200" y="305" as="targetPoint" />
          </mxGeometry>
        </mxCell>
        <mxCell id="4J-5iPxQKvGVU4ECOA4h-138" value="" style="endArrow=none;html=1;rounded=0;entryX=1;entryY=0.5;entryDx=0;entryDy=0;exitX=0;exitY=0.75;exitDx=0;exitDy=0;" edge="1" parent="1" source="4J-5iPxQKvGVU4ECOA4h-131" target="4J-5iPxQKvGVU4ECOA4h-133">
          <mxGeometry width="50" height="50" relative="1" as="geometry">
            <mxPoint x="-1115" y="325" as="sourcePoint" />
            <mxPoint x="-1205" y="275" as="targetPoint" />
          </mxGeometry>
        </mxCell>
        <mxCell id="4J-5iPxQKvGVU4ECOA4h-139" value="" style="endArrow=none;html=1;rounded=0;entryX=0;entryY=1;entryDx=0;entryDy=0;exitX=1;exitY=0.5;exitDx=0;exitDy=0;" edge="1" parent="1" source="4J-5iPxQKvGVU4ECOA4h-131" target="4J-5iPxQKvGVU4ECOA4h-134">
          <mxGeometry width="50" height="50" relative="1" as="geometry">
            <mxPoint x="-1115" y="355" as="sourcePoint" />
            <mxPoint x="-1145" y="350" as="targetPoint" />
          </mxGeometry>
        </mxCell>
        <mxCell id="4J-5iPxQKvGVU4ECOA4h-140" value="" style="endArrow=none;html=1;rounded=0;exitX=1;exitY=0.5;exitDx=0;exitDy=0;" edge="1" parent="1" source="4J-5iPxQKvGVU4ECOA4h-131" target="4J-5iPxQKvGVU4ECOA4h-135">
          <mxGeometry width="50" height="50" relative="1" as="geometry">
            <mxPoint x="-995" y="340" as="sourcePoint" />
            <mxPoint x="-895" y="260" as="targetPoint" />
          </mxGeometry>
        </mxCell>
        <mxCell id="4J-5iPxQKvGVU4ECOA4h-141" value="ISA" style="triangle;whiteSpace=wrap;html=1;direction=south;" vertex="1" parent="1">
          <mxGeometry x="-1105" y="650" width="80" height="60" as="geometry" />
        </mxCell>
        <mxCell id="4J-5iPxQKvGVU4ECOA4h-143" value="Disjoint" style="text;html=1;align=center;verticalAlign=middle;resizable=0;points=[];autosize=1;strokeColor=none;fillColor=none;" vertex="1" parent="1">
          <mxGeometry x="-1005" y="650" width="60" height="30" as="geometry" />
        </mxCell>
        <mxCell id="4J-5iPxQKvGVU4ECOA4h-144" value="Agent" style="rounded=1;whiteSpace=wrap;html=1;" vertex="1" parent="1">
          <mxGeometry x="-905" y="920" width="120" height="60" as="geometry" />
        </mxCell>
        <mxCell id="4J-5iPxQKvGVU4ECOA4h-146" value="job_title" style="ellipse;whiteSpace=wrap;html=1;" vertex="1" parent="1">
          <mxGeometry x="-1105" y="840" width="120" height="60" as="geometry" />
        </mxCell>
        <mxCell id="4J-5iPxQKvGVU4ECOA4h-147" value="contact_info" style="ellipse;whiteSpace=wrap;html=1;" vertex="1" parent="1">
          <mxGeometry x="-1145" y="920" width="120" height="60" as="geometry" />
        </mxCell>
        <mxCell id="4J-5iPxQKvGVU4ECOA4h-148" value="agency_name" style="ellipse;whiteSpace=wrap;html=1;" vertex="1" parent="1">
          <mxGeometry x="-720" y="820" width="120" height="60" as="geometry" />
        </mxCell>
        <mxCell id="4J-5iPxQKvGVU4ECOA4h-149" value="Experience" style="ellipse;whiteSpace=wrap;html=1;" vertex="1" parent="1">
          <mxGeometry x="-1070" y="990" width="120" height="60" as="geometry" />
        </mxCell>
        <mxCell id="4J-5iPxQKvGVU4ECOA4h-150" value="Rating" style="ellipse;whiteSpace=wrap;html=1;" vertex="1" parent="1">
          <mxGeometry x="-725" y="1010" width="120" height="60" as="geometry" />
        </mxCell>
        <mxCell id="4J-5iPxQKvGVU4ECOA4h-151" value="" style="endArrow=none;html=1;rounded=0;entryX=0.5;entryY=1;entryDx=0;entryDy=0;exitX=0;exitY=0.25;exitDx=0;exitDy=0;" edge="1" parent="1" source="4J-5iPxQKvGVU4ECOA4h-144" target="4J-5iPxQKvGVU4ECOA4h-146">
          <mxGeometry width="50" height="50" relative="1" as="geometry">
            <mxPoint x="-1385" y="1020" as="sourcePoint" />
            <mxPoint x="-1335" y="970" as="targetPoint" />
          </mxGeometry>
        </mxCell>
        <mxCell id="4J-5iPxQKvGVU4ECOA4h-152" value="" style="endArrow=none;html=1;rounded=0;entryX=1;entryY=0.5;entryDx=0;entryDy=0;exitX=0;exitY=0.75;exitDx=0;exitDy=0;" edge="1" parent="1" source="4J-5iPxQKvGVU4ECOA4h-144" target="4J-5iPxQKvGVU4ECOA4h-147">
          <mxGeometry width="50" height="50" relative="1" as="geometry">
            <mxPoint x="-895" y="945" as="sourcePoint" />
            <mxPoint x="-1035" y="910" as="targetPoint" />
          </mxGeometry>
        </mxCell>
        <mxCell id="4J-5iPxQKvGVU4ECOA4h-153" value="" style="endArrow=none;html=1;rounded=0;entryX=0.5;entryY=0;entryDx=0;entryDy=0;exitX=0.25;exitY=1;exitDx=0;exitDy=0;" edge="1" parent="1" source="4J-5iPxQKvGVU4ECOA4h-144" target="4J-5iPxQKvGVU4ECOA4h-149">
          <mxGeometry width="50" height="50" relative="1" as="geometry">
            <mxPoint x="-895" y="975" as="sourcePoint" />
            <mxPoint x="-965" y="1000" as="targetPoint" />
          </mxGeometry>
        </mxCell>
        <mxCell id="4J-5iPxQKvGVU4ECOA4h-154" value="" style="endArrow=none;html=1;rounded=0;entryX=0;entryY=0.5;entryDx=0;entryDy=0;exitX=0.75;exitY=1;exitDx=0;exitDy=0;" edge="1" parent="1" source="4J-5iPxQKvGVU4ECOA4h-144" target="4J-5iPxQKvGVU4ECOA4h-150">
          <mxGeometry width="50" height="50" relative="1" as="geometry">
            <mxPoint x="-847" y="998" as="sourcePoint" />
            <mxPoint x="-865" y="1040" as="targetPoint" />
          </mxGeometry>
        </mxCell>
        <mxCell id="4J-5iPxQKvGVU4ECOA4h-155" value="" style="endArrow=none;html=1;rounded=0;entryX=1;entryY=0.5;entryDx=0;entryDy=0;exitX=0.5;exitY=1;exitDx=0;exitDy=0;" edge="1" parent="1" source="4J-5iPxQKvGVU4ECOA4h-148" target="4J-5iPxQKvGVU4ECOA4h-144">
          <mxGeometry width="50" height="50" relative="1" as="geometry">
            <mxPoint x="-805" y="990" as="sourcePoint" />
            <mxPoint x="-715" y="1050" as="targetPoint" />
          </mxGeometry>
        </mxCell>
        <mxCell id="4J-5iPxQKvGVU4ECOA4h-156" value="" style="endArrow=none;html=1;rounded=0;entryX=1;entryY=0.5;entryDx=0;entryDy=0;exitX=0.5;exitY=0;exitDx=0;exitDy=0;" edge="1" parent="1" source="4J-5iPxQKvGVU4ECOA4h-144" target="4J-5iPxQKvGVU4ECOA4h-141">
          <mxGeometry width="50" height="50" relative="1" as="geometry">
            <mxPoint x="-895" y="945" as="sourcePoint" />
            <mxPoint x="-1035" y="910" as="targetPoint" />
          </mxGeometry>
        </mxCell>
        <mxCell id="4J-5iPxQKvGVU4ECOA4h-157" value="" style="shape=link;html=1;rounded=0;exitX=0.5;exitY=1;exitDx=0;exitDy=0;entryX=0.5;entryY=0;entryDx=0;entryDy=0;" edge="1" parent="1" source="4J-5iPxQKvGVU4ECOA4h-144" target="4J-5iPxQKvGVU4ECOA4h-159">
          <mxGeometry width="100" relative="1" as="geometry">
            <mxPoint x="-985" y="1180" as="sourcePoint" />
            <mxPoint x="-745" y="1170" as="targetPoint" />
          </mxGeometry>
        </mxCell>
        <mxCell id="4J-5iPxQKvGVU4ECOA4h-159" value="Employed_In" style="rhombus;whiteSpace=wrap;html=1;" vertex="1" parent="1">
          <mxGeometry x="-917.5" y="1185" width="145" height="80" as="geometry" />
        </mxCell>
        <mxCell id="4J-5iPxQKvGVU4ECOA4h-161" value="" style="endArrow=none;html=1;rounded=0;entryX=0.5;entryY=1;entryDx=0;entryDy=0;exitX=0.5;exitY=0;exitDx=0;exitDy=0;" edge="1" parent="1" source="4J-5iPxQKvGVU4ECOA4h-162" target="4J-5iPxQKvGVU4ECOA4h-159">
          <mxGeometry width="50" height="50" relative="1" as="geometry">
            <mxPoint x="-715" y="1340" as="sourcePoint" />
            <mxPoint x="-915" y="1160" as="targetPoint" />
          </mxGeometry>
        </mxCell>
        <mxCell id="4J-5iPxQKvGVU4ECOA4h-162" value="Agency" style="rounded=1;whiteSpace=wrap;html=1;" vertex="1" parent="1">
          <mxGeometry x="-775" y="1360" width="120" height="60" as="geometry" />
        </mxCell>
        <mxCell id="4J-5iPxQKvGVU4ECOA4h-163" value="" style="endArrow=none;html=1;rounded=0;exitX=0.75;exitY=0;exitDx=0;exitDy=0;entryX=0;entryY=0.5;entryDx=0;entryDy=0;" edge="1" parent="1" source="4J-5iPxQKvGVU4ECOA4h-162" target="4J-5iPxQKvGVU4ECOA4h-164">
          <mxGeometry width="50" height="50" relative="1" as="geometry">
            <mxPoint x="-705" y="1370" as="sourcePoint" />
            <mxPoint x="-595" y="1320" as="targetPoint" />
          </mxGeometry>
        </mxCell>
        <mxCell id="4J-5iPxQKvGVU4ECOA4h-164" value="agency_name" style="ellipse;whiteSpace=wrap;html=1;" vertex="1" parent="1">
          <mxGeometry x="-575" y="1280" width="120" height="60" as="geometry" />
        </mxCell>
        <mxCell id="4J-5iPxQKvGVU4ECOA4h-165" value="&lt;b&gt;&lt;u&gt;Agency_ID&lt;/u&gt;&lt;/b&gt;" style="ellipse;whiteSpace=wrap;html=1;" vertex="1" parent="1">
          <mxGeometry x="-585" y="1450" width="120" height="60" as="geometry" />
        </mxCell>
        <mxCell id="4J-5iPxQKvGVU4ECOA4h-166" value="" style="endArrow=none;html=1;rounded=0;exitX=0.5;exitY=1;exitDx=0;exitDy=0;entryX=0;entryY=0.5;entryDx=0;entryDy=0;" edge="1" parent="1" source="4J-5iPxQKvGVU4ECOA4h-162" target="4J-5iPxQKvGVU4ECOA4h-165">
          <mxGeometry width="50" height="50" relative="1" as="geometry">
            <mxPoint x="-675" y="1370" as="sourcePoint" />
            <mxPoint x="-565" y="1320" as="targetPoint" />
          </mxGeometry>
        </mxCell>
        <mxCell id="4J-5iPxQKvGVU4ECOA4h-167" value="" style="endArrow=none;html=1;rounded=0;entryX=1;entryY=0.5;entryDx=0;entryDy=0;exitX=0;exitY=0.5;exitDx=0;exitDy=0;" edge="1" parent="1" source="4J-5iPxQKvGVU4ECOA4h-168" target="4J-5iPxQKvGVU4ECOA4h-162">
          <mxGeometry width="50" height="50" relative="1" as="geometry">
            <mxPoint x="-125" y="1460" as="sourcePoint" />
            <mxPoint x="-1175" y="1160" as="targetPoint" />
          </mxGeometry>
        </mxCell>
        <mxCell id="4J-5iPxQKvGVU4ECOA4h-168" value="Manages" style="rhombus;whiteSpace=wrap;html=1;" vertex="1" parent="1">
          <mxGeometry x="-130" y="1400" width="80" height="80" as="geometry" />
        </mxCell>
        <mxCell id="4J-5iPxQKvGVU4ECOA4h-174" value="" style="endArrow=none;html=1;rounded=0;entryX=0.5;entryY=1;entryDx=0;entryDy=0;exitX=0.612;exitY=0.007;exitDx=0;exitDy=0;exitPerimeter=0;" edge="1" parent="1" source="4J-5iPxQKvGVU4ECOA4h-175" target="4J-5iPxQKvGVU4ECOA4h-168">
          <mxGeometry width="50" height="50" relative="1" as="geometry">
            <mxPoint x="120" y="1850" as="sourcePoint" />
            <mxPoint x="-10" y="1520" as="targetPoint" />
          </mxGeometry>
        </mxCell>
        <mxCell id="4J-5iPxQKvGVU4ECOA4h-175" value="Lease_Agreement" style="rounded=1;whiteSpace=wrap;html=1;" vertex="1" parent="1">
          <mxGeometry x="-160" y="1515" width="120" height="60" as="geometry" />
        </mxCell>
        <mxCell id="4J-5iPxQKvGVU4ECOA4h-176" value="movie_in_date" style="ellipse;whiteSpace=wrap;html=1;" vertex="1" parent="1">
          <mxGeometry x="-60" y="1620" width="120" height="50" as="geometry" />
        </mxCell>
        <mxCell id="4J-5iPxQKvGVU4ECOA4h-177" value="&lt;u&gt;&lt;b&gt;Lease_ID&lt;/b&gt;&lt;/u&gt;" style="ellipse;whiteSpace=wrap;html=1;" vertex="1" parent="1">
          <mxGeometry x="-380" y="1540" width="120" height="60" as="geometry" />
        </mxCell>
        <mxCell id="4J-5iPxQKvGVU4ECOA4h-178" value="User_Sign" style="ellipse;whiteSpace=wrap;html=1;" vertex="1" parent="1">
          <mxGeometry x="-190" y="1600" width="120" height="50" as="geometry" />
        </mxCell>
        <mxCell id="4J-5iPxQKvGVU4ECOA4h-179" value="lease_period" style="ellipse;whiteSpace=wrap;html=1;" vertex="1" parent="1">
          <mxGeometry x="50" y="1590" width="120" height="50" as="geometry" />
        </mxCell>
        <mxCell id="4J-5iPxQKvGVU4ECOA4h-180" value="Move_Out_Date" style="ellipse;whiteSpace=wrap;html=1;" vertex="1" parent="1">
          <mxGeometry x="80" y="1520" width="120" height="50" as="geometry" />
        </mxCell>
        <mxCell id="4J-5iPxQKvGVU4ECOA4h-181" value="" style="endArrow=none;html=1;rounded=0;entryX=0.5;entryY=0;entryDx=0;entryDy=0;exitX=0.75;exitY=1;exitDx=0;exitDy=0;" edge="1" parent="1" source="WouVvHNb6_mTUOxKdpXr-69" target="WouVvHNb6_mTUOxKdpXr-55">
          <mxGeometry width="50" height="50" relative="1" as="geometry">
            <mxPoint x="180" y="1230" as="sourcePoint" />
            <mxPoint x="-80" y="1500" as="targetPoint" />
          </mxGeometry>
        </mxCell>
        <mxCell id="4J-5iPxQKvGVU4ECOA4h-182" value="" style="endArrow=none;html=1;rounded=0;entryX=1;entryY=0.5;entryDx=0;entryDy=0;exitX=0;exitY=0.5;exitDx=0;exitDy=0;" edge="1" parent="1" source="4J-5iPxQKvGVU4ECOA4h-175" target="4J-5iPxQKvGVU4ECOA4h-177">
          <mxGeometry width="50" height="50" relative="1" as="geometry">
            <mxPoint x="-160" y="1530" as="sourcePoint" />
            <mxPoint x="-190" y="1430" as="targetPoint" />
          </mxGeometry>
        </mxCell>
        <mxCell id="4J-5iPxQKvGVU4ECOA4h-183" value="" style="endArrow=none;html=1;rounded=0;entryX=0.5;entryY=0;entryDx=0;entryDy=0;exitX=0.5;exitY=1;exitDx=0;exitDy=0;" edge="1" parent="1" source="4J-5iPxQKvGVU4ECOA4h-175" target="4J-5iPxQKvGVU4ECOA4h-178">
          <mxGeometry width="50" height="50" relative="1" as="geometry">
            <mxPoint x="-160" y="1530" as="sourcePoint" />
            <mxPoint x="-250" y="1570" as="targetPoint" />
          </mxGeometry>
        </mxCell>
        <mxCell id="4J-5iPxQKvGVU4ECOA4h-184" value="" style="endArrow=none;html=1;rounded=0;entryX=0.5;entryY=0;entryDx=0;entryDy=0;" edge="1" parent="1" source="4J-5iPxQKvGVU4ECOA4h-175" target="4J-5iPxQKvGVU4ECOA4h-179">
          <mxGeometry width="50" height="50" relative="1" as="geometry">
            <mxPoint x="-100" y="1560" as="sourcePoint" />
            <mxPoint x="-80" y="1610" as="targetPoint" />
          </mxGeometry>
        </mxCell>
        <mxCell id="4J-5iPxQKvGVU4ECOA4h-185" value="" style="endArrow=none;html=1;rounded=0;entryX=0;entryY=0.5;entryDx=0;entryDy=0;exitX=1;exitY=0.25;exitDx=0;exitDy=0;" edge="1" parent="1" source="4J-5iPxQKvGVU4ECOA4h-175" target="4J-5iPxQKvGVU4ECOA4h-180">
          <mxGeometry width="50" height="50" relative="1" as="geometry">
            <mxPoint x="-40" y="1545" as="sourcePoint" />
            <mxPoint x="140" y="1590" as="targetPoint" />
          </mxGeometry>
        </mxCell>
        <mxCell id="4J-5iPxQKvGVU4ECOA4h-186" value="Prospective Renter" style="rounded=1;whiteSpace=wrap;html=1;" vertex="1" parent="1">
          <mxGeometry x="-300" y="470" width="120" height="60" as="geometry" />
        </mxCell>
        <mxCell id="4J-5iPxQKvGVU4ECOA4h-187" value="Rewards_points" style="ellipse;whiteSpace=wrap;html=1;" vertex="1" parent="1">
          <mxGeometry x="-410" y="550" width="120" height="50" as="geometry" />
        </mxCell>
        <mxCell id="4J-5iPxQKvGVU4ECOA4h-188" value="budget" style="ellipse;whiteSpace=wrap;html=1;" vertex="1" parent="1">
          <mxGeometry x="-590" y="800" width="120" height="60" as="geometry" />
        </mxCell>
        <mxCell id="4J-5iPxQKvGVU4ECOA4h-190" value="move_in_date" style="ellipse;whiteSpace=wrap;html=1;" vertex="1" parent="1">
          <mxGeometry x="-150" y="535" width="120" height="50" as="geometry" />
        </mxCell>
        <mxCell id="4J-5iPxQKvGVU4ECOA4h-191" value="No_of_Pets" style="ellipse;whiteSpace=wrap;html=1;" vertex="1" parent="1">
          <mxGeometry x="-140" y="455" width="120" height="50" as="geometry" />
        </mxCell>
        <mxCell id="4J-5iPxQKvGVU4ECOA4h-192" value="" style="endArrow=none;html=1;rounded=0;entryX=1;entryY=0.5;entryDx=0;entryDy=0;exitX=0.25;exitY=1;exitDx=0;exitDy=0;" edge="1" parent="1" source="4J-5iPxQKvGVU4ECOA4h-186" target="4J-5iPxQKvGVU4ECOA4h-187">
          <mxGeometry width="50" height="50" relative="1" as="geometry">
            <mxPoint x="-320" y="585" as="sourcePoint" />
            <mxPoint x="-270" y="535" as="targetPoint" />
          </mxGeometry>
        </mxCell>
        <mxCell id="4J-5iPxQKvGVU4ECOA4h-193" value="" style="endArrow=none;html=1;rounded=0;entryX=1;entryY=0.5;entryDx=0;entryDy=0;exitX=0;exitY=1;exitDx=0;exitDy=0;" edge="1" parent="1" source="WouVvHNb6_mTUOxKdpXr-15" target="4J-5iPxQKvGVU4ECOA4h-188">
          <mxGeometry width="50" height="50" relative="1" as="geometry">
            <mxPoint x="-470" y="512.5" as="sourcePoint" />
            <mxPoint x="-520" y="305" as="targetPoint" />
          </mxGeometry>
        </mxCell>
        <mxCell id="4J-5iPxQKvGVU4ECOA4h-194" value="" style="endArrow=none;html=1;rounded=0;entryX=0.5;entryY=0;entryDx=0;entryDy=0;exitX=0.5;exitY=1;exitDx=0;exitDy=0;" edge="1" parent="1" source="4J-5iPxQKvGVU4ECOA4h-186" target="WouVvHNb6_mTUOxKdpXr-22">
          <mxGeometry width="50" height="50" relative="1" as="geometry">
            <mxPoint x="-350" y="565" as="sourcePoint" />
            <mxPoint x="-270" y="650" as="targetPoint" />
            <Array as="points" />
          </mxGeometry>
        </mxCell>
        <mxCell id="4J-5iPxQKvGVU4ECOA4h-195" value="" style="endArrow=none;html=1;rounded=0;entryX=0.5;entryY=0;entryDx=0;entryDy=0;" edge="1" parent="1" source="4J-5iPxQKvGVU4ECOA4h-186" target="4J-5iPxQKvGVU4ECOA4h-190">
          <mxGeometry width="50" height="50" relative="1" as="geometry">
            <mxPoint x="-290" y="595" as="sourcePoint" />
            <mxPoint x="-270" y="645" as="targetPoint" />
          </mxGeometry>
        </mxCell>
        <mxCell id="4J-5iPxQKvGVU4ECOA4h-196" value="" style="endArrow=none;html=1;rounded=0;entryX=0;entryY=0.5;entryDx=0;entryDy=0;exitX=1;exitY=0.25;exitDx=0;exitDy=0;" edge="1" parent="1" source="4J-5iPxQKvGVU4ECOA4h-186" target="4J-5iPxQKvGVU4ECOA4h-191">
          <mxGeometry width="50" height="50" relative="1" as="geometry">
            <mxPoint x="-230" y="580" as="sourcePoint" />
            <mxPoint x="-50" y="625" as="targetPoint" />
          </mxGeometry>
        </mxCell>
        <mxCell id="4J-5iPxQKvGVU4ECOA4h-197" value="city" style="ellipse;whiteSpace=wrap;html=1;" vertex="1" parent="1">
          <mxGeometry x="-605" y="730" width="120" height="50" as="geometry" />
        </mxCell>
        <mxCell id="4J-5iPxQKvGVU4ECOA4h-198" value="" style="endArrow=none;html=1;rounded=0;entryX=1;entryY=1;entryDx=0;entryDy=0;exitX=0;exitY=0.5;exitDx=0;exitDy=0;" edge="1" parent="1" source="WouVvHNb6_mTUOxKdpXr-15" target="4J-5iPxQKvGVU4ECOA4h-197">
          <mxGeometry width="50" height="50" relative="1" as="geometry">
            <mxPoint x="-453.21921280948845" y="528.1069379589821" as="sourcePoint" />
            <mxPoint x="-580" y="455" as="targetPoint" />
          </mxGeometry>
        </mxCell>
        <mxCell id="4J-5iPxQKvGVU4ECOA4h-199" value="" style="endArrow=none;html=1;rounded=0;exitX=0.25;exitY=1;exitDx=0;exitDy=0;" edge="1" parent="1" source="WouVvHNb6_mTUOxKdpXr-15" target="4J-5iPxQKvGVU4ECOA4h-200">
          <mxGeometry width="50" height="50" relative="1" as="geometry">
            <mxPoint x="-410" y="535" as="sourcePoint" />
            <mxPoint x="-540" y="570" as="targetPoint" />
          </mxGeometry>
        </mxCell>
        <mxCell id="4J-5iPxQKvGVU4ECOA4h-200" value="state" style="ellipse;whiteSpace=wrap;html=1;" vertex="1" parent="1">
          <mxGeometry x="-460" y="850" width="120" height="50" as="geometry" />
        </mxCell>
        <mxCell id="4J-5iPxQKvGVU4ECOA4h-201" value="" style="endArrow=none;html=1;rounded=0;entryX=0.119;entryY=0.064;entryDx=0;entryDy=0;entryPerimeter=0;exitX=0;exitY=0.25;exitDx=0;exitDy=0;" edge="1" parent="1" source="4J-5iPxQKvGVU4ECOA4h-186" target="4J-5iPxQKvGVU4ECOA4h-141">
          <mxGeometry width="50" height="50" relative="1" as="geometry">
            <mxPoint x="-350" y="530" as="sourcePoint" />
            <mxPoint x="-1055" y="720" as="targetPoint" />
          </mxGeometry>
        </mxCell>
        <mxCell id="4J-5iPxQKvGVU4ECOA4h-203" value="city" style="ellipse;whiteSpace=wrap;html=1;" vertex="1" parent="1">
          <mxGeometry x="-370" y="-195" width="120" height="60" as="geometry" />
        </mxCell>
        <mxCell id="4J-5iPxQKvGVU4ECOA4h-204" value="Street_No" style="ellipse;whiteSpace=wrap;html=1;" vertex="1" parent="1">
          <mxGeometry x="-310" y="-265" width="120" height="60" as="geometry" />
        </mxCell>
        <mxCell id="4J-5iPxQKvGVU4ECOA4h-205" value="Zip" style="ellipse;whiteSpace=wrap;html=1;" vertex="1" parent="1">
          <mxGeometry x="-185" y="-260" width="120" height="60" as="geometry" />
        </mxCell>
        <mxCell id="4J-5iPxQKvGVU4ECOA4h-206" value="" style="endArrow=none;html=1;rounded=0;entryX=0.5;entryY=1;entryDx=0;entryDy=0;exitX=0.5;exitY=0;exitDx=0;exitDy=0;" edge="1" parent="1" source="4J-5iPxQKvGVU4ECOA4h-219" target="4J-5iPxQKvGVU4ECOA4h-203">
          <mxGeometry width="50" height="50" relative="1" as="geometry">
            <mxPoint x="-632.6767035904013" y="-162.57276030193043" as="sourcePoint" />
            <mxPoint x="-1210" y="80" as="targetPoint" />
          </mxGeometry>
        </mxCell>
        <mxCell id="4J-5iPxQKvGVU4ECOA4h-207" value="" style="endArrow=none;html=1;rounded=0;entryX=0.5;entryY=1;entryDx=0;entryDy=0;exitX=0.533;exitY=0.005;exitDx=0;exitDy=0;exitPerimeter=0;" edge="1" parent="1" source="4J-5iPxQKvGVU4ECOA4h-219" target="4J-5iPxQKvGVU4ECOA4h-204">
          <mxGeometry width="50" height="50" relative="1" as="geometry">
            <mxPoint x="-590" y="-170" as="sourcePoint" />
            <mxPoint x="-760" y="-230" as="targetPoint" />
          </mxGeometry>
        </mxCell>
        <mxCell id="4J-5iPxQKvGVU4ECOA4h-208" value="" style="endArrow=none;html=1;rounded=0;entryX=0;entryY=1;entryDx=0;entryDy=0;exitX=0.522;exitY=0.019;exitDx=0;exitDy=0;exitPerimeter=0;" edge="1" parent="1" source="4J-5iPxQKvGVU4ECOA4h-219" target="4J-5iPxQKvGVU4ECOA4h-205">
          <mxGeometry width="50" height="50" relative="1" as="geometry">
            <mxPoint x="-590" y="-170" as="sourcePoint" />
            <mxPoint x="-187.42640687119228" y="-178.7867965644034" as="targetPoint" />
          </mxGeometry>
        </mxCell>
        <mxCell id="4J-5iPxQKvGVU4ECOA4h-219" value="Address" style="rounded=1;whiteSpace=wrap;html=1;" vertex="1" parent="1">
          <mxGeometry x="-280" y="-105" width="120" height="60" as="geometry" />
        </mxCell>
        <mxCell id="4J-5iPxQKvGVU4ECOA4h-220" value="" style="endArrow=none;html=1;rounded=0;exitX=0.5;exitY=0;exitDx=0;exitDy=0;entryX=0.5;entryY=1;entryDx=0;entryDy=0;" edge="1" parent="1" source="4J-5iPxQKvGVU4ECOA4h-186" target="WouVvHNb6_mTUOxKdpXr-8">
          <mxGeometry width="50" height="50" relative="1" as="geometry">
            <mxPoint x="-1470" y="490" as="sourcePoint" />
            <mxPoint x="-462.5" y="70" as="targetPoint" />
          </mxGeometry>
        </mxCell>
        <mxCell id="4J-5iPxQKvGVU4ECOA4h-221" value="cvv" style="ellipse;whiteSpace=wrap;html=1;" vertex="1" parent="1">
          <mxGeometry x="-55" y="-560" width="120" height="60" as="geometry" />
        </mxCell>
        <mxCell id="4J-5iPxQKvGVU4ECOA4h-222" value="&lt;u&gt;&lt;b&gt;card_number&lt;/b&gt;&lt;/u&gt;" style="ellipse;whiteSpace=wrap;html=1;" vertex="1" parent="1">
          <mxGeometry x="-175" y="-540" width="120" height="60" as="geometry" />
        </mxCell>
        <mxCell id="4J-5iPxQKvGVU4ECOA4h-223" value="card_holder_name" style="ellipse;whiteSpace=wrap;html=1;" vertex="1" parent="1">
          <mxGeometry x="105" y="-510" width="120" height="60" as="geometry" />
        </mxCell>
        <mxCell id="4J-5iPxQKvGVU4ECOA4h-224" value="" style="endArrow=none;html=1;rounded=0;entryX=0.5;entryY=1;entryDx=0;entryDy=0;exitX=0.5;exitY=0;exitDx=0;exitDy=0;" edge="1" parent="1" source="4J-5iPxQKvGVU4ECOA4h-227" target="4J-5iPxQKvGVU4ECOA4h-221">
          <mxGeometry width="50" height="50" relative="1" as="geometry">
            <mxPoint x="-12.676703590401303" y="-382.57276030193043" as="sourcePoint" />
            <mxPoint x="-590" y="-140" as="targetPoint" />
          </mxGeometry>
        </mxCell>
        <mxCell id="4J-5iPxQKvGVU4ECOA4h-225" value="" style="endArrow=none;html=1;rounded=0;entryX=0.5;entryY=1;entryDx=0;entryDy=0;exitX=0.25;exitY=0;exitDx=0;exitDy=0;" edge="1" parent="1" source="4J-5iPxQKvGVU4ECOA4h-227" target="4J-5iPxQKvGVU4ECOA4h-222">
          <mxGeometry width="50" height="50" relative="1" as="geometry">
            <mxPoint x="30" y="-390" as="sourcePoint" />
            <mxPoint x="-140" y="-450" as="targetPoint" />
          </mxGeometry>
        </mxCell>
        <mxCell id="4J-5iPxQKvGVU4ECOA4h-226" value="" style="endArrow=none;html=1;rounded=0;entryX=0;entryY=1;entryDx=0;entryDy=0;exitX=0.522;exitY=0.019;exitDx=0;exitDy=0;exitPerimeter=0;" edge="1" parent="1" source="4J-5iPxQKvGVU4ECOA4h-227" target="4J-5iPxQKvGVU4ECOA4h-223">
          <mxGeometry width="50" height="50" relative="1" as="geometry">
            <mxPoint x="30" y="-390" as="sourcePoint" />
            <mxPoint x="30" y="-470" as="targetPoint" />
          </mxGeometry>
        </mxCell>
        <mxCell id="4J-5iPxQKvGVU4ECOA4h-227" value="Credit_card" style="rounded=1;whiteSpace=wrap;html=1;" vertex="1" parent="1">
          <mxGeometry x="-30" y="-390" width="120" height="60" as="geometry" />
        </mxCell>
        <mxCell id="4J-5iPxQKvGVU4ECOA4h-229" value="" style="endArrow=none;html=1;rounded=0;entryX=0;entryY=0.5;entryDx=0;entryDy=0;exitX=1;exitY=0;exitDx=0;exitDy=0;" edge="1" parent="1" source="4J-5iPxQKvGVU4ECOA4h-227" target="T1VYS1GyTTY-NjwaLah--1">
          <mxGeometry width="50" height="50" relative="1" as="geometry">
            <mxPoint x="95" y="-360" as="sourcePoint" />
            <mxPoint x="145" y="-410" as="targetPoint" />
          </mxGeometry>
        </mxCell>
        <mxCell id="4J-5iPxQKvGVU4ECOA4h-232" value="" style="endArrow=none;html=1;rounded=0;exitX=0.5;exitY=1;exitDx=0;exitDy=0;entryX=0.5;entryY=0;entryDx=0;entryDy=0;" edge="1" parent="1" source="4J-5iPxQKvGVU4ECOA4h-219" target="WouVvHNb6_mTUOxKdpXr-8">
          <mxGeometry width="50" height="50" relative="1" as="geometry">
            <mxPoint x="-910" y="-420" as="sourcePoint" />
            <mxPoint x="-390" y="-40" as="targetPoint" />
          </mxGeometry>
        </mxCell>
        <mxCell id="Z7SGUbAoFIcYQutOE_xK-7" value="PropertyBookings" style="rounded=1;whiteSpace=wrap;html=1;" vertex="1" parent="1">
          <mxGeometry x="835" y="1595" width="150" height="60" as="geometry" />
        </mxCell>
        <mxCell id="Z7SGUbAoFIcYQutOE_xK-8" value="&lt;b&gt;&lt;u&gt;Booking ID&lt;/u&gt;&lt;/b&gt;" style="ellipse;whiteSpace=wrap;html=1;" vertex="1" parent="1">
          <mxGeometry x="950" y="1685" width="120" height="50" as="geometry" />
        </mxCell>
        <mxCell id="Z7SGUbAoFIcYQutOE_xK-9" value="property_id" style="ellipse;whiteSpace=wrap;html=1;" vertex="1" parent="1">
          <mxGeometry x="1010" y="1600" width="120" height="50" as="geometry" />
        </mxCell>
        <mxCell id="Z7SGUbAoFIcYQutOE_xK-10" value="renter_id" style="ellipse;whiteSpace=wrap;html=1;" vertex="1" parent="1">
          <mxGeometry x="795" y="1685" width="120" height="50" as="geometry" />
        </mxCell>
        <mxCell id="Z7SGUbAoFIcYQutOE_xK-11" value="check_in_date" style="ellipse;whiteSpace=wrap;html=1;" vertex="1" parent="1">
          <mxGeometry x="550" y="1590" width="120" height="50" as="geometry" />
        </mxCell>
        <mxCell id="Z7SGUbAoFIcYQutOE_xK-12" value="check_out_date" style="ellipse;whiteSpace=wrap;html=1;" vertex="1" parent="1">
          <mxGeometry x="690" y="1655" width="120" height="50" as="geometry" />
        </mxCell>
        <mxCell id="Z7SGUbAoFIcYQutOE_xK-13" value="price" style="ellipse;whiteSpace=wrap;html=1;" vertex="1" parent="1">
          <mxGeometry x="545" y="1510" width="120" height="50" as="geometry" />
        </mxCell>
        <mxCell id="Z7SGUbAoFIcYQutOE_xK-14" value="" style="endArrow=none;html=1;rounded=0;entryX=0;entryY=0.25;entryDx=0;entryDy=0;exitX=0.5;exitY=1;exitDx=0;exitDy=0;" edge="1" parent="1" source="Z7SGUbAoFIcYQutOE_xK-13" target="Z7SGUbAoFIcYQutOE_xK-7">
          <mxGeometry width="50" height="50" relative="1" as="geometry">
            <mxPoint x="700" y="1495" as="sourcePoint" />
            <mxPoint x="750" y="1445" as="targetPoint" />
          </mxGeometry>
        </mxCell>
        <mxCell id="Z7SGUbAoFIcYQutOE_xK-15" value="" style="endArrow=none;html=1;rounded=0;entryX=0;entryY=0.5;entryDx=0;entryDy=0;exitX=0.5;exitY=1;exitDx=0;exitDy=0;" edge="1" parent="1" source="Z7SGUbAoFIcYQutOE_xK-11" target="Z7SGUbAoFIcYQutOE_xK-7">
          <mxGeometry width="50" height="50" relative="1" as="geometry">
            <mxPoint x="770" y="1570" as="sourcePoint" />
            <mxPoint x="845" y="1620" as="targetPoint" />
          </mxGeometry>
        </mxCell>
        <mxCell id="Z7SGUbAoFIcYQutOE_xK-16" value="" style="endArrow=none;html=1;rounded=0;entryX=0;entryY=0.75;entryDx=0;entryDy=0;exitX=0.5;exitY=0;exitDx=0;exitDy=0;" edge="1" parent="1" source="Z7SGUbAoFIcYQutOE_xK-12" target="Z7SGUbAoFIcYQutOE_xK-7">
          <mxGeometry width="50" height="50" relative="1" as="geometry">
            <mxPoint x="770" y="1635" as="sourcePoint" />
            <mxPoint x="845" y="1635" as="targetPoint" />
          </mxGeometry>
        </mxCell>
        <mxCell id="Z7SGUbAoFIcYQutOE_xK-17" value="" style="endArrow=none;html=1;rounded=0;entryX=0.25;entryY=1;entryDx=0;entryDy=0;exitX=0.5;exitY=0;exitDx=0;exitDy=0;" edge="1" parent="1" source="Z7SGUbAoFIcYQutOE_xK-10" target="Z7SGUbAoFIcYQutOE_xK-7">
          <mxGeometry width="50" height="50" relative="1" as="geometry">
            <mxPoint x="760" y="1665" as="sourcePoint" />
            <mxPoint x="845" y="1650" as="targetPoint" />
          </mxGeometry>
        </mxCell>
        <mxCell id="Z7SGUbAoFIcYQutOE_xK-18" value="" style="endArrow=none;html=1;rounded=0;entryX=0.75;entryY=1;entryDx=0;entryDy=0;exitX=0.5;exitY=0;exitDx=0;exitDy=0;" edge="1" parent="1" source="Z7SGUbAoFIcYQutOE_xK-8" target="Z7SGUbAoFIcYQutOE_xK-7">
          <mxGeometry width="50" height="50" relative="1" as="geometry">
            <mxPoint x="865" y="1695" as="sourcePoint" />
            <mxPoint x="882.5" y="1665" as="targetPoint" />
          </mxGeometry>
        </mxCell>
        <mxCell id="Z7SGUbAoFIcYQutOE_xK-19" value="" style="endArrow=none;html=1;rounded=0;entryX=1;entryY=0.5;entryDx=0;entryDy=0;exitX=0;exitY=0.5;exitDx=0;exitDy=0;" edge="1" parent="1" source="Z7SGUbAoFIcYQutOE_xK-9" target="Z7SGUbAoFIcYQutOE_xK-7">
          <mxGeometry width="50" height="50" relative="1" as="geometry">
            <mxPoint x="1020" y="1695" as="sourcePoint" />
            <mxPoint x="957.5" y="1665" as="targetPoint" />
          </mxGeometry>
        </mxCell>
        <mxCell id="Z7SGUbAoFIcYQutOE_xK-80" value="" style="endArrow=none;html=1;rounded=0;entryX=0.75;entryY=0;entryDx=0;entryDy=0;exitX=0.75;exitY=1;exitDx=0;exitDy=0;" edge="1" parent="1" source="4J-5iPxQKvGVU4ECOA4h-60" target="Z7SGUbAoFIcYQutOE_xK-7">
          <mxGeometry width="50" height="50" relative="1" as="geometry">
            <mxPoint x="995" y="1800" as="sourcePoint" />
            <mxPoint x="1350" y="1490" as="targetPoint" />
          </mxGeometry>
        </mxCell>
        <mxCell id="XY98v9Uh_zNNZ0nDO3fT-3" value="Phone number" style="ellipse;whiteSpace=wrap;html=1;" vertex="1" parent="1">
          <mxGeometry x="-1260" y="192.5" width="120" height="60" as="geometry" />
        </mxCell>
        <mxCell id="XY98v9Uh_zNNZ0nDO3fT-4" value="DOB" style="ellipse;whiteSpace=wrap;html=1;" vertex="1" parent="1">
          <mxGeometry x="-1225" y="430" width="120" height="60" as="geometry" />
        </mxCell>
        <mxCell id="WouVvHNb6_mTUOxKdpXr-1" value="" style="endArrow=none;html=1;rounded=0;entryX=1;entryY=0;entryDx=0;entryDy=0;" edge="1" parent="1" source="4J-5iPxQKvGVU4ECOA4h-131" target="T1VYS1GyTTY-NjwaLah--2">
          <mxGeometry width="50" height="50" relative="1" as="geometry">
            <mxPoint x="-1115" y="325" as="sourcePoint" />
            <mxPoint x="-1292.0995998592168" y="409.02647104228345" as="targetPoint" />
          </mxGeometry>
        </mxCell>
        <mxCell id="WouVvHNb6_mTUOxKdpXr-3" value="" style="endArrow=none;html=1;rounded=0;entryX=0.5;entryY=1;entryDx=0;entryDy=0;exitX=0.25;exitY=0;exitDx=0;exitDy=0;" edge="1" parent="1" source="4J-5iPxQKvGVU4ECOA4h-131" target="XY98v9Uh_zNNZ0nDO3fT-3">
          <mxGeometry width="50" height="50" relative="1" as="geometry">
            <mxPoint x="-1095" y="345" as="sourcePoint" />
            <mxPoint x="-1170" y="335" as="targetPoint" />
          </mxGeometry>
        </mxCell>
        <mxCell id="WouVvHNb6_mTUOxKdpXr-4" value="Expiry_month" style="ellipse;whiteSpace=wrap;html=1;" vertex="1" parent="1">
          <mxGeometry x="325" y="-510" width="120" height="60" as="geometry" />
        </mxCell>
        <mxCell id="WouVvHNb6_mTUOxKdpXr-5" value="Expiry_year" style="ellipse;whiteSpace=wrap;html=1;" vertex="1" parent="1">
          <mxGeometry x="305" y="-440" width="120" height="60" as="geometry" />
        </mxCell>
        <mxCell id="T1VYS1GyTTY-NjwaLah--1" value="Expiry_info" style="ellipse;shape=doubleEllipse;margin=3;whiteSpace=wrap;html=1;align=center;" vertex="1" parent="1">
          <mxGeometry x="155" y="-440" width="120" height="50" as="geometry" />
        </mxCell>
        <mxCell id="WouVvHNb6_mTUOxKdpXr-6" value="" style="endArrow=none;html=1;rounded=0;entryX=0;entryY=0.5;entryDx=0;entryDy=0;exitX=1;exitY=1;exitDx=0;exitDy=0;" edge="1" parent="1" source="T1VYS1GyTTY-NjwaLah--1" target="WouVvHNb6_mTUOxKdpXr-5">
          <mxGeometry width="50" height="50" relative="1" as="geometry">
            <mxPoint x="265" y="-410" as="sourcePoint" />
            <mxPoint x="155" y="-400" as="targetPoint" />
          </mxGeometry>
        </mxCell>
        <mxCell id="T1VYS1GyTTY-NjwaLah--2" value="Age" style="ellipse;whiteSpace=wrap;html=1;align=center;dashed=1;direction=east;" vertex="1" parent="1">
          <mxGeometry x="-1310" y="390" width="100" height="40" as="geometry" />
        </mxCell>
        <mxCell id="WouVvHNb6_mTUOxKdpXr-7" value="" style="endArrow=none;html=1;rounded=0;entryX=0;entryY=0.5;entryDx=0;entryDy=0;" edge="1" parent="1" source="T1VYS1GyTTY-NjwaLah--1" target="WouVvHNb6_mTUOxKdpXr-4">
          <mxGeometry width="50" height="50" relative="1" as="geometry">
            <mxPoint x="247.42640687119274" y="-431.2132034355959" as="sourcePoint" />
            <mxPoint x="165" y="-390" as="targetPoint" />
          </mxGeometry>
        </mxCell>
        <mxCell id="WouVvHNb6_mTUOxKdpXr-8" value="HAS" style="rhombus;whiteSpace=wrap;html=1;" vertex="1" parent="1">
          <mxGeometry x="-285" y="120" width="135" height="80" as="geometry" />
        </mxCell>
        <mxCell id="WouVvHNb6_mTUOxKdpXr-13" value="move_in_date" style="ellipse;whiteSpace=wrap;html=1;" vertex="1" parent="1">
          <mxGeometry x="-330" y="840" width="120" height="50" as="geometry" />
        </mxCell>
        <mxCell id="WouVvHNb6_mTUOxKdpXr-14" value="" style="endArrow=none;html=1;rounded=0;exitX=0.75;exitY=1;exitDx=0;exitDy=0;entryX=0;entryY=0;entryDx=0;entryDy=0;" edge="1" parent="1" source="WouVvHNb6_mTUOxKdpXr-15" target="WouVvHNb6_mTUOxKdpXr-13">
          <mxGeometry width="50" height="50" relative="1" as="geometry">
            <mxPoint x="-350" y="512.5" as="sourcePoint" />
            <mxPoint x="-388" y="600" as="targetPoint" />
          </mxGeometry>
        </mxCell>
        <mxCell id="T1VYS1GyTTY-NjwaLah--8" value="" style="endArrow=none;html=1;rounded=0;" edge="1" parent="1">
          <mxGeometry relative="1" as="geometry">
            <mxPoint x="1065" y="1060" as="sourcePoint" />
            <mxPoint x="1135" y="1060" as="targetPoint" />
            <Array as="points">
              <mxPoint x="1095" y="1060" />
            </Array>
          </mxGeometry>
        </mxCell>
        <mxCell id="WouVvHNb6_mTUOxKdpXr-15" value="Rental_preference" style="rounded=0;whiteSpace=wrap;html=1;" vertex="1" parent="1">
          <mxGeometry x="-440" y="740" width="120" height="60" as="geometry" />
        </mxCell>
        <mxCell id="WouVvHNb6_mTUOxKdpXr-17" value="Zip" style="ellipse;whiteSpace=wrap;html=1;" vertex="1" parent="1">
          <mxGeometry x="275" y="-360" width="120" height="40" as="geometry" />
        </mxCell>
        <mxCell id="WouVvHNb6_mTUOxKdpXr-19" value="" style="endArrow=none;html=1;rounded=0;entryX=0.5;entryY=1;entryDx=0;entryDy=0;exitX=0.5;exitY=0;exitDx=0;exitDy=0;" edge="1" parent="1" source="WouVvHNb6_mTUOxKdpXr-20" target="4J-5iPxQKvGVU4ECOA4h-227">
          <mxGeometry width="50" height="50" relative="1" as="geometry">
            <mxPoint x="-170" y="110" as="sourcePoint" />
            <mxPoint x="-632" y="90" as="targetPoint" />
          </mxGeometry>
        </mxCell>
        <mxCell id="T1VYS1GyTTY-NjwaLah--11" value="Billing_addr" style="ellipse;shape=doubleEllipse;margin=3;whiteSpace=wrap;html=1;align=center;" vertex="1" parent="1">
          <mxGeometry x="110" y="-330" width="120" height="50" as="geometry" />
        </mxCell>
        <mxCell id="WouVvHNb6_mTUOxKdpXr-20" value="HAS" style="rhombus;whiteSpace=wrap;html=1;" vertex="1" parent="1">
          <mxGeometry x="42.5" y="165" width="135" height="80" as="geometry" />
        </mxCell>
        <mxCell id="T1VYS1GyTTY-NjwaLah--14" value="City" style="ellipse;whiteSpace=wrap;html=1;" vertex="1" parent="1">
          <mxGeometry x="215" y="-300" width="120" height="30" as="geometry" />
        </mxCell>
        <mxCell id="T1VYS1GyTTY-NjwaLah--15" value="State" style="ellipse;whiteSpace=wrap;html=1;" vertex="1" parent="1">
          <mxGeometry x="185" y="-230" width="120" height="30" as="geometry" />
        </mxCell>
        <mxCell id="T1VYS1GyTTY-NjwaLah--17" value="" style="endArrow=none;html=1;rounded=0;entryX=0;entryY=0.5;entryDx=0;entryDy=0;exitX=1;exitY=0;exitDx=0;exitDy=0;" edge="1" parent="1" source="T1VYS1GyTTY-NjwaLah--11" target="WouVvHNb6_mTUOxKdpXr-17">
          <mxGeometry width="50" height="50" relative="1" as="geometry">
            <mxPoint x="292.5" y="-315" as="sourcePoint" />
            <mxPoint x="357.5" y="-370" as="targetPoint" />
          </mxGeometry>
        </mxCell>
        <mxCell id="T1VYS1GyTTY-NjwaLah--18" value="" style="endArrow=none;html=1;rounded=0;entryX=0;entryY=0;entryDx=0;entryDy=0;exitX=1;exitY=1;exitDx=0;exitDy=0;" edge="1" parent="1" source="T1VYS1GyTTY-NjwaLah--11" target="T1VYS1GyTTY-NjwaLah--14">
          <mxGeometry width="50" height="50" relative="1" as="geometry">
            <mxPoint x="235" y="-260" as="sourcePoint" />
            <mxPoint x="300" y="-315" as="targetPoint" />
          </mxGeometry>
        </mxCell>
        <mxCell id="T1VYS1GyTTY-NjwaLah--19" value="" style="endArrow=none;html=1;rounded=0;entryX=0.5;entryY=1;entryDx=0;entryDy=0;exitX=0.5;exitY=0;exitDx=0;exitDy=0;" edge="1" parent="1" source="T1VYS1GyTTY-NjwaLah--15" target="T1VYS1GyTTY-NjwaLah--11">
          <mxGeometry width="50" height="50" relative="1" as="geometry">
            <mxPoint x="135" y="-242.5" as="sourcePoint" />
            <mxPoint x="200" y="-297.5" as="targetPoint" />
            <Array as="points" />
          </mxGeometry>
        </mxCell>
        <mxCell id="WouVvHNb6_mTUOxKdpXr-22" value="HAS" style="rhombus;whiteSpace=wrap;html=1;" vertex="1" parent="1">
          <mxGeometry x="-307.5" y="625" width="135" height="80" as="geometry" />
        </mxCell>
        <mxCell id="WouVvHNb6_mTUOxKdpXr-23" value="" style="endArrow=none;html=1;rounded=0;entryX=0.5;entryY=0;entryDx=0;entryDy=0;exitX=0.5;exitY=1;exitDx=0;exitDy=0;" edge="1" parent="1" source="WouVvHNb6_mTUOxKdpXr-22" target="WouVvHNb6_mTUOxKdpXr-15">
          <mxGeometry width="50" height="50" relative="1" as="geometry">
            <mxPoint x="-230" y="540" as="sourcePoint" />
            <mxPoint x="-415" y="570" as="targetPoint" />
            <Array as="points" />
          </mxGeometry>
        </mxCell>
        <mxCell id="T1VYS1GyTTY-NjwaLah--33" value="" style="endArrow=none;html=1;rounded=0;entryX=0;entryY=0.5;entryDx=0;entryDy=0;exitX=1;exitY=0.5;exitDx=0;exitDy=0;" edge="1" parent="1" source="4J-5iPxQKvGVU4ECOA4h-227" target="T1VYS1GyTTY-NjwaLah--11">
          <mxGeometry width="50" height="50" relative="1" as="geometry">
            <mxPoint x="100" y="-380" as="sourcePoint" />
            <mxPoint x="165" y="-405" as="targetPoint" />
          </mxGeometry>
        </mxCell>
        <mxCell id="WouVvHNb6_mTUOxKdpXr-21" value="" style="endArrow=none;html=1;rounded=0;entryX=0.5;entryY=0;entryDx=0;entryDy=0;exitX=0.5;exitY=1;exitDx=0;exitDy=0;" edge="1" parent="1" source="WouVvHNb6_mTUOxKdpXr-20" target="4J-5iPxQKvGVU4ECOA4h-186">
          <mxGeometry width="50" height="50" relative="1" as="geometry">
            <mxPoint x="-340" as="sourcePoint" />
            <mxPoint x="-525" y="-490" as="targetPoint" />
          </mxGeometry>
        </mxCell>
        <mxCell id="WouVvHNb6_mTUOxKdpXr-24" value="&lt;b&gt;&lt;u&gt;Agent_ID&lt;/u&gt;&lt;/b&gt;" style="ellipse;whiteSpace=wrap;html=1;" vertex="1" parent="1">
          <mxGeometry x="-845" y="745" width="120" height="60" as="geometry" />
        </mxCell>
        <mxCell id="WouVvHNb6_mTUOxKdpXr-25" value="" style="endArrow=none;html=1;rounded=0;entryX=0.75;entryY=0;entryDx=0;entryDy=0;exitX=0.5;exitY=1;exitDx=0;exitDy=0;" edge="1" parent="1" source="WouVvHNb6_mTUOxKdpXr-24" target="4J-5iPxQKvGVU4ECOA4h-144">
          <mxGeometry width="50" height="50" relative="1" as="geometry">
            <mxPoint x="-650" y="890" as="sourcePoint" />
            <mxPoint x="-775" y="960" as="targetPoint" />
          </mxGeometry>
        </mxCell>
        <mxCell id="T1VYS1GyTTY-NjwaLah--51" value="&lt;b&gt;&lt;u&gt;Appartment_ID&lt;/u&gt;&lt;/b&gt;" style="ellipse;whiteSpace=wrap;html=1;" vertex="1" parent="1">
          <mxGeometry x="730" y="245" width="120" height="50" as="geometry" />
        </mxCell>
        <mxCell id="T1VYS1GyTTY-NjwaLah--52" value="" style="endArrow=none;html=1;rounded=0;entryX=0;entryY=0.5;entryDx=0;entryDy=0;exitX=1;exitY=0.25;exitDx=0;exitDy=0;" edge="1" parent="1" source="4J-5iPxQKvGVU4ECOA4h-14" target="T1VYS1GyTTY-NjwaLah--51">
          <mxGeometry width="50" height="50" relative="1" as="geometry">
            <mxPoint x="650" y="260" as="sourcePoint" />
            <mxPoint x="780" y="210" as="targetPoint" />
          </mxGeometry>
        </mxCell>
        <mxCell id="WouVvHNb6_mTUOxKdpXr-26" value="" style="shape=link;html=1;rounded=0;exitX=1;exitY=0.5;exitDx=0;exitDy=0;entryX=0.25;entryY=1;entryDx=0;entryDy=0;" edge="1" parent="1" source="4J-5iPxQKvGVU4ECOA4h-168" target="4J-5iPxQKvGVU4ECOA4h-60">
          <mxGeometry width="100" relative="1" as="geometry">
            <mxPoint x="1340" y="630" as="sourcePoint" />
            <mxPoint x="1340" y="1120" as="targetPoint" />
          </mxGeometry>
        </mxCell>
        <mxCell id="WouVvHNb6_mTUOxKdpXr-31" value="Reward_programme" style="rounded=1;whiteSpace=wrap;html=1;" vertex="1" parent="1">
          <mxGeometry x="-80" y="1020" width="120" height="60" as="geometry" />
        </mxCell>
        <mxCell id="WouVvHNb6_mTUOxKdpXr-33" value="Registers" style="rhombus;whiteSpace=wrap;html=1;" vertex="1" parent="1">
          <mxGeometry x="-110" y="830" width="135" height="80" as="geometry" />
        </mxCell>
        <mxCell id="WouVvHNb6_mTUOxKdpXr-34" value="" style="endArrow=none;html=1;rounded=0;entryX=0.5;entryY=0;entryDx=0;entryDy=0;exitX=0.5;exitY=1;exitDx=0;exitDy=0;" edge="1" parent="1" source="4J-5iPxQKvGVU4ECOA4h-186" target="WouVvHNb6_mTUOxKdpXr-33">
          <mxGeometry width="50" height="50" relative="1" as="geometry">
            <mxPoint x="-230" y="715" as="sourcePoint" />
            <mxPoint x="-370" y="750" as="targetPoint" />
            <Array as="points" />
          </mxGeometry>
        </mxCell>
        <mxCell id="WouVvHNb6_mTUOxKdpXr-35" value="" style="endArrow=none;html=1;rounded=0;entryX=0.5;entryY=0;entryDx=0;entryDy=0;exitX=0.5;exitY=1;exitDx=0;exitDy=0;" edge="1" parent="1" source="WouVvHNb6_mTUOxKdpXr-33" target="WouVvHNb6_mTUOxKdpXr-31">
          <mxGeometry width="50" height="50" relative="1" as="geometry">
            <mxPoint x="-220" y="725" as="sourcePoint" />
            <mxPoint x="-360" y="760" as="targetPoint" />
            <Array as="points" />
          </mxGeometry>
        </mxCell>
        <mxCell id="WouVvHNb6_mTUOxKdpXr-37" value="" style="endArrow=none;html=1;rounded=0;entryX=0;entryY=0.5;entryDx=0;entryDy=0;exitX=1;exitY=0.5;exitDx=0;exitDy=0;shape=link;" edge="1" parent="1" source="WouVvHNb6_mTUOxKdpXr-70" target="WouVvHNb6_mTUOxKdpXr-69">
          <mxGeometry width="50" height="50" relative="1" as="geometry">
            <mxPoint x="40" y="1190" as="sourcePoint" />
            <mxPoint x="150" y="1200" as="targetPoint" />
            <Array as="points" />
          </mxGeometry>
        </mxCell>
        <mxCell id="WouVvHNb6_mTUOxKdpXr-38" value="" style="endArrow=none;html=1;rounded=0;entryX=0.5;entryY=1;entryDx=0;entryDy=0;exitX=0.5;exitY=0;exitDx=0;exitDy=0;" edge="1" parent="1" source="WouVvHNb6_mTUOxKdpXr-70" target="WouVvHNb6_mTUOxKdpXr-31">
          <mxGeometry width="50" height="50" relative="1" as="geometry">
            <mxPoint x="-27.5" y="1150" as="sourcePoint" />
            <mxPoint x="-22" y="850" as="targetPoint" />
            <Array as="points" />
          </mxGeometry>
        </mxCell>
        <mxCell id="WouVvHNb6_mTUOxKdpXr-39" value="DOES" style="rhombus;whiteSpace=wrap;html=1;" vertex="1" parent="1">
          <mxGeometry x="682.5" y="1110" width="135" height="80" as="geometry" />
        </mxCell>
        <mxCell id="WouVvHNb6_mTUOxKdpXr-41" value="" style="endArrow=none;html=1;rounded=0;entryX=0.5;entryY=1;entryDx=0;entryDy=0;exitX=0.5;exitY=0;exitDx=0;exitDy=0;" edge="1" parent="1" source="Z7SGUbAoFIcYQutOE_xK-7" target="WouVvHNb6_mTUOxKdpXr-39">
          <mxGeometry width="50" height="50" relative="1" as="geometry">
            <mxPoint x="-7" y="1250" as="sourcePoint" />
            <mxPoint x="170" y="1220" as="targetPoint" />
            <Array as="points" />
          </mxGeometry>
        </mxCell>
        <mxCell id="WouVvHNb6_mTUOxKdpXr-43" value="" style="endArrow=none;html=1;rounded=0;entryX=0.5;entryY=0;entryDx=0;entryDy=0;exitX=0.25;exitY=1;exitDx=0;exitDy=0;" edge="1" parent="1" source="4J-5iPxQKvGVU4ECOA4h-94" target="4J-5iPxQKvGVU4ECOA4h-95">
          <mxGeometry width="50" height="50" relative="1" as="geometry">
            <mxPoint x="2140" y="1655" as="sourcePoint" />
            <mxPoint x="2160" y="1430" as="targetPoint" />
          </mxGeometry>
        </mxCell>
        <mxCell id="WouVvHNb6_mTUOxKdpXr-45" value="" style="endArrow=none;html=1;rounded=0;entryX=0.5;entryY=0;entryDx=0;entryDy=0;exitX=0.75;exitY=1;exitDx=0;exitDy=0;" edge="1" parent="1" source="4J-5iPxQKvGVU4ECOA4h-186" target="WouVvHNb6_mTUOxKdpXr-39">
          <mxGeometry width="50" height="50" relative="1" as="geometry">
            <mxPoint x="920" y="1605" as="sourcePoint" />
            <mxPoint x="808" y="1380" as="targetPoint" />
            <Array as="points" />
          </mxGeometry>
        </mxCell>
        <mxCell id="WouVvHNb6_mTUOxKdpXr-46" value="" style="endArrow=none;html=1;rounded=0;entryX=0.25;entryY=0;entryDx=0;entryDy=0;exitX=0.5;exitY=1;exitDx=0;exitDy=0;" edge="1" parent="1" source="WouVvHNb6_mTUOxKdpXr-73" target="Z7SGUbAoFIcYQutOE_xK-7">
          <mxGeometry width="50" height="50" relative="1" as="geometry">
            <mxPoint x="400" y="1470" as="sourcePoint" />
            <mxPoint x="808" y="1380" as="targetPoint" />
            <Array as="points" />
          </mxGeometry>
        </mxCell>
        <mxCell id="WouVvHNb6_mTUOxKdpXr-48" value="&lt;b&gt;&lt;u&gt;Addr_ID&lt;/u&gt;&lt;/b&gt;" style="ellipse;whiteSpace=wrap;html=1;" vertex="1" parent="1">
          <mxGeometry x="-445" y="-110" width="120" height="50" as="geometry" />
        </mxCell>
        <mxCell id="WouVvHNb6_mTUOxKdpXr-49" value="" style="endArrow=none;html=1;rounded=0;entryX=0;entryY=0.5;entryDx=0;entryDy=0;exitX=1;exitY=0.5;exitDx=0;exitDy=0;" edge="1" parent="1" source="WouVvHNb6_mTUOxKdpXr-48" target="4J-5iPxQKvGVU4ECOA4h-219">
          <mxGeometry width="50" height="50" relative="1" as="geometry">
            <mxPoint x="-207" y="-94" as="sourcePoint" />
            <mxPoint x="-157" y="-199" as="targetPoint" />
          </mxGeometry>
        </mxCell>
        <mxCell id="WouVvHNb6_mTUOxKdpXr-51" value="HAS" style="rhombus;whiteSpace=wrap;html=1;" vertex="1" parent="1">
          <mxGeometry x="-140" y="-150" width="135" height="80" as="geometry" />
        </mxCell>
        <mxCell id="WouVvHNb6_mTUOxKdpXr-52" value="" style="endArrow=none;html=1;rounded=0;entryX=0.25;entryY=1;entryDx=0;entryDy=0;exitX=0.5;exitY=0;exitDx=0;exitDy=0;" edge="1" parent="1" source="WouVvHNb6_mTUOxKdpXr-51" target="4J-5iPxQKvGVU4ECOA4h-227">
          <mxGeometry width="50" height="50" relative="1" as="geometry">
            <mxPoint x="225" y="170" as="sourcePoint" />
            <mxPoint x="40" y="-320" as="targetPoint" />
          </mxGeometry>
        </mxCell>
        <mxCell id="WouVvHNb6_mTUOxKdpXr-53" value="" style="endArrow=none;html=1;rounded=0;entryX=0.107;entryY=0.588;entryDx=0;entryDy=0;exitX=1;exitY=0.5;exitDx=0;exitDy=0;entryPerimeter=0;" edge="1" parent="1" source="4J-5iPxQKvGVU4ECOA4h-219" target="WouVvHNb6_mTUOxKdpXr-51">
          <mxGeometry width="50" height="50" relative="1" as="geometry">
            <mxPoint x="235" y="180" as="sourcePoint" />
            <mxPoint x="50" y="-310" as="targetPoint" />
          </mxGeometry>
        </mxCell>
        <mxCell id="WouVvHNb6_mTUOxKdpXr-54" value="Reward_points_ID" style="ellipse;whiteSpace=wrap;html=1;" vertex="1" parent="1">
          <mxGeometry x="275" y="1230" width="120" height="60" as="geometry" />
        </mxCell>
        <mxCell id="WouVvHNb6_mTUOxKdpXr-55" value="User_ID" style="ellipse;whiteSpace=wrap;html=1;" vertex="1" parent="1">
          <mxGeometry x="155" y="1250" width="120" height="60" as="geometry" />
        </mxCell>
        <mxCell id="WouVvHNb6_mTUOxKdpXr-56" value="Reward_programme_ID" style="ellipse;whiteSpace=wrap;html=1;" vertex="1" parent="1">
          <mxGeometry x="257.5" y="1075" width="155" height="60" as="geometry" />
        </mxCell>
        <mxCell id="WouVvHNb6_mTUOxKdpXr-57" value="Earned_date" style="ellipse;whiteSpace=wrap;html=1;" vertex="1" parent="1">
          <mxGeometry x="420" y="1080" width="155" height="60" as="geometry" />
        </mxCell>
        <mxCell id="WouVvHNb6_mTUOxKdpXr-59" value="Redemption_history" style="ellipse;whiteSpace=wrap;html=1;" vertex="1" parent="1">
          <mxGeometry x="400" y="1155" width="155" height="60" as="geometry" />
        </mxCell>
        <mxCell id="T1VYS1GyTTY-NjwaLah--53" value="Rewards Offered" style="ellipse;whiteSpace=wrap;html=1;" vertex="1" parent="1">
          <mxGeometry x="50" y="925" width="120" height="50" as="geometry" />
        </mxCell>
        <mxCell id="T1VYS1GyTTY-NjwaLah--54" value="Redemption process" style="ellipse;whiteSpace=wrap;html=1;" vertex="1" parent="1">
          <mxGeometry x="110" y="990" width="120" height="50" as="geometry" />
        </mxCell>
        <mxCell id="T1VYS1GyTTY-NjwaLah--55" value="Eligibility Criteria" style="ellipse;whiteSpace=wrap;html=1;" vertex="1" parent="1">
          <mxGeometry x="-240" y="990" width="120" height="50" as="geometry" />
        </mxCell>
        <mxCell id="T1VYS1GyTTY-NjwaLah--56" value="Expiration policy" style="ellipse;whiteSpace=wrap;html=1;" vertex="1" parent="1">
          <mxGeometry x="-215" y="1120" width="120" height="50" as="geometry" />
        </mxCell>
        <mxCell id="T1VYS1GyTTY-NjwaLah--57" value="Name" style="ellipse;whiteSpace=wrap;html=1;" vertex="1" parent="1">
          <mxGeometry x="-180" y="940" width="120" height="40" as="geometry" />
        </mxCell>
        <mxCell id="T1VYS1GyTTY-NjwaLah--58" value="&lt;b&gt;&lt;u&gt;Id&lt;/u&gt;&lt;/b&gt;" style="ellipse;whiteSpace=wrap;html=1;" vertex="1" parent="1">
          <mxGeometry x="-230" y="1055" width="120" height="50" as="geometry" />
        </mxCell>
        <mxCell id="WouVvHNb6_mTUOxKdpXr-60" value="Expiry_date" style="ellipse;whiteSpace=wrap;html=1;" vertex="1" parent="1">
          <mxGeometry x="130" y="1070" width="120" height="60" as="geometry" />
        </mxCell>
        <mxCell id="T1VYS1GyTTY-NjwaLah--59" value="" style="endArrow=none;html=1;rounded=0;exitX=0;exitY=0.5;exitDx=0;exitDy=0;" edge="1" parent="1" source="T1VYS1GyTTY-NjwaLah--54">
          <mxGeometry width="50" height="50" relative="1" as="geometry">
            <mxPoint x="-32" y="920" as="sourcePoint" />
            <mxPoint x="40" y="1030" as="targetPoint" />
            <Array as="points" />
          </mxGeometry>
        </mxCell>
        <mxCell id="WouVvHNb6_mTUOxKdpXr-61" value="" style="endArrow=none;html=1;rounded=0;entryX=1;entryY=0.5;entryDx=0;entryDy=0;exitX=0;exitY=0;exitDx=0;exitDy=0;" edge="1" parent="1" source="WouVvHNb6_mTUOxKdpXr-54" target="WouVvHNb6_mTUOxKdpXr-69">
          <mxGeometry width="50" height="50" relative="1" as="geometry">
            <mxPoint x="-70" y="1560" as="sourcePoint" />
            <mxPoint x="240" y="1230" as="targetPoint" />
          </mxGeometry>
        </mxCell>
        <mxCell id="T1VYS1GyTTY-NjwaLah--60" value="" style="endArrow=none;html=1;rounded=0;exitX=0;exitY=0.5;exitDx=0;exitDy=0;" edge="1" parent="1" source="T1VYS1GyTTY-NjwaLah--53" target="WouVvHNb6_mTUOxKdpXr-31">
          <mxGeometry width="50" height="50" relative="1" as="geometry">
            <mxPoint x="-22" y="930" as="sourcePoint" />
            <mxPoint y="1040" as="targetPoint" />
            <Array as="points" />
          </mxGeometry>
        </mxCell>
        <mxCell id="T1VYS1GyTTY-NjwaLah--61" value="" style="endArrow=none;html=1;rounded=0;entryX=1;entryY=0;entryDx=0;entryDy=0;exitX=0.25;exitY=1;exitDx=0;exitDy=0;" edge="1" parent="1" source="WouVvHNb6_mTUOxKdpXr-31" target="T1VYS1GyTTY-NjwaLah--56">
          <mxGeometry width="50" height="50" relative="1" as="geometry">
            <mxPoint x="-12" y="940" as="sourcePoint" />
            <mxPoint x="10" y="1050" as="targetPoint" />
            <Array as="points" />
          </mxGeometry>
        </mxCell>
        <mxCell id="T1VYS1GyTTY-NjwaLah--62" value="" style="endArrow=none;html=1;rounded=0;entryX=1;entryY=0.5;entryDx=0;entryDy=0;exitX=0;exitY=0.75;exitDx=0;exitDy=0;" edge="1" parent="1" source="WouVvHNb6_mTUOxKdpXr-31" target="T1VYS1GyTTY-NjwaLah--58">
          <mxGeometry width="50" height="50" relative="1" as="geometry">
            <mxPoint x="-2" y="950" as="sourcePoint" />
            <mxPoint x="20" y="1060" as="targetPoint" />
            <Array as="points" />
          </mxGeometry>
        </mxCell>
        <mxCell id="T1VYS1GyTTY-NjwaLah--63" value="" style="endArrow=none;html=1;rounded=0;entryX=0;entryY=0.25;entryDx=0;entryDy=0;exitX=1;exitY=0.5;exitDx=0;exitDy=0;" edge="1" parent="1" source="T1VYS1GyTTY-NjwaLah--55" target="WouVvHNb6_mTUOxKdpXr-31">
          <mxGeometry width="50" height="50" relative="1" as="geometry">
            <mxPoint x="8" y="960" as="sourcePoint" />
            <mxPoint x="30" y="1070" as="targetPoint" />
            <Array as="points" />
          </mxGeometry>
        </mxCell>
        <mxCell id="T1VYS1GyTTY-NjwaLah--64" value="" style="endArrow=none;html=1;rounded=0;entryX=0.333;entryY=-0.025;entryDx=0;entryDy=0;exitX=0.725;exitY=0.987;exitDx=0;exitDy=0;exitPerimeter=0;entryPerimeter=0;" edge="1" parent="1" source="T1VYS1GyTTY-NjwaLah--57" target="WouVvHNb6_mTUOxKdpXr-31">
          <mxGeometry width="50" height="50" relative="1" as="geometry">
            <mxPoint x="18" y="970" as="sourcePoint" />
            <mxPoint x="40" y="1080" as="targetPoint" />
            <Array as="points" />
          </mxGeometry>
        </mxCell>
        <mxCell id="WouVvHNb6_mTUOxKdpXr-62" value="" style="endArrow=none;html=1;rounded=0;entryX=0;entryY=0.5;entryDx=0;entryDy=0;exitX=0.5;exitY=0;exitDx=0;exitDy=0;" edge="1" parent="1" source="WouVvHNb6_mTUOxKdpXr-69" target="WouVvHNb6_mTUOxKdpXr-59">
          <mxGeometry width="50" height="50" relative="1" as="geometry">
            <mxPoint x="270" y="1200" as="sourcePoint" />
            <mxPoint x="20" y="1640" as="targetPoint" />
          </mxGeometry>
        </mxCell>
        <mxCell id="WouVvHNb6_mTUOxKdpXr-64" value="" style="endArrow=none;html=1;rounded=0;entryX=0.25;entryY=0;entryDx=0;entryDy=0;exitX=0.5;exitY=1;exitDx=0;exitDy=0;" edge="1" parent="1" source="WouVvHNb6_mTUOxKdpXr-56" target="WouVvHNb6_mTUOxKdpXr-69">
          <mxGeometry width="50" height="50" relative="1" as="geometry">
            <mxPoint x="-40" y="1590" as="sourcePoint" />
            <mxPoint x="210" y="1170" as="targetPoint" />
          </mxGeometry>
        </mxCell>
        <mxCell id="WouVvHNb6_mTUOxKdpXr-65" value="" style="endArrow=none;html=1;rounded=0;entryX=0.25;entryY=0;entryDx=0;entryDy=0;exitX=1;exitY=1;exitDx=0;exitDy=0;" edge="1" parent="1" source="WouVvHNb6_mTUOxKdpXr-60" target="WouVvHNb6_mTUOxKdpXr-69">
          <mxGeometry width="50" height="50" relative="1" as="geometry">
            <mxPoint x="-30" y="1600" as="sourcePoint" />
            <mxPoint x="180" y="1170" as="targetPoint" />
          </mxGeometry>
        </mxCell>
        <mxCell id="WouVvHNb6_mTUOxKdpXr-68" value="Neighborhood_info&amp;nbsp;" style="shape=ext;margin=3;double=1;whiteSpace=wrap;html=1;align=center;" vertex="1" parent="1">
          <mxGeometry x="1935" y="920" width="150" height="45" as="geometry" />
        </mxCell>
        <mxCell id="WouVvHNb6_mTUOxKdpXr-69" value="Reward_points" style="shape=ext;margin=3;double=1;whiteSpace=wrap;html=1;align=center;" vertex="1" parent="1">
          <mxGeometry x="150" y="1180" width="150" height="45" as="geometry" />
        </mxCell>
        <mxCell id="T1VYS1GyTTY-NjwaLah--65" value="maintainence Fee" style="ellipse;whiteSpace=wrap;html=1;" vertex="1" parent="1">
          <mxGeometry x="1090" y="965" width="120" height="50" as="geometry" />
        </mxCell>
        <mxCell id="T1VYS1GyTTY-NjwaLah--66" value="Matket Value" style="ellipse;whiteSpace=wrap;html=1;" vertex="1" parent="1">
          <mxGeometry x="1210" y="1015" width="120" height="50" as="geometry" />
        </mxCell>
        <mxCell id="WouVvHNb6_mTUOxKdpXr-70" value="Gives" style="shape=rhombus;double=1;perimeter=rhombusPerimeter;whiteSpace=wrap;html=1;align=center;" vertex="1" parent="1">
          <mxGeometry x="-80" y="1175" width="120" height="60" as="geometry" />
        </mxCell>
        <mxCell id="T1VYS1GyTTY-NjwaLah--67" value="" style="endArrow=none;html=1;rounded=0;exitX=0.5;exitY=1;exitDx=0;exitDy=0;entryX=0;entryY=0;entryDx=0;entryDy=0;" edge="1" parent="1" source="T1VYS1GyTTY-NjwaLah--65" target="4J-5iPxQKvGVU4ECOA4h-60">
          <mxGeometry width="50" height="50" relative="1" as="geometry">
            <mxPoint x="1110" y="1090" as="sourcePoint" />
            <mxPoint x="1280" y="1133" as="targetPoint" />
          </mxGeometry>
        </mxCell>
        <mxCell id="WouVvHNb6_mTUOxKdpXr-71" value="" style="endArrow=none;html=1;rounded=0;entryX=0.5;entryY=1;entryDx=0;entryDy=0;" edge="1" parent="1" target="WouVvHNb6_mTUOxKdpXr-57">
          <mxGeometry width="50" height="50" relative="1" as="geometry">
            <mxPoint x="270" y="1180" as="sourcePoint" />
            <mxPoint x="410" y="1195" as="targetPoint" />
          </mxGeometry>
        </mxCell>
        <mxCell id="T1VYS1GyTTY-NjwaLah--68" value="" style="endArrow=none;html=1;rounded=0;exitX=0.5;exitY=1;exitDx=0;exitDy=0;entryX=0.25;entryY=0;entryDx=0;entryDy=0;" edge="1" parent="1" source="T1VYS1GyTTY-NjwaLah--66" target="4J-5iPxQKvGVU4ECOA4h-60">
          <mxGeometry width="50" height="50" relative="1" as="geometry">
            <mxPoint x="1120" y="1100" as="sourcePoint" />
            <mxPoint x="1290" y="1143" as="targetPoint" />
          </mxGeometry>
        </mxCell>
        <mxCell id="WouVvHNb6_mTUOxKdpXr-72" value="HAS" style="shape=rhombus;double=1;perimeter=rhombusPerimeter;whiteSpace=wrap;html=1;align=center;" vertex="1" parent="1">
          <mxGeometry x="1840" y="1090" width="120" height="60" as="geometry" />
        </mxCell>
        <mxCell id="WouVvHNb6_mTUOxKdpXr-73" value="HAS" style="shape=rhombus;double=1;perimeter=rhombusPerimeter;whiteSpace=wrap;html=1;align=center;" vertex="1" parent="1">
          <mxGeometry x="600" y="1350" width="120" height="60" as="geometry" />
        </mxCell>
        <mxCell id="WouVvHNb6_mTUOxKdpXr-74" value="" style="endArrow=none;html=1;rounded=0;entryX=1;entryY=0.5;entryDx=0;entryDy=0;exitX=0.5;exitY=0;exitDx=0;exitDy=0;shape=link;" edge="1" parent="1" source="WouVvHNb6_mTUOxKdpXr-73" target="WouVvHNb6_mTUOxKdpXr-69">
          <mxGeometry width="50" height="50" relative="1" as="geometry">
            <mxPoint x="670" y="1420" as="sourcePoint" />
            <mxPoint x="883" y="1605" as="targetPoint" />
            <Array as="points" />
          </mxGeometry>
        </mxCell>
        <mxCell id="T1VYS1GyTTY-NjwaLah--69" value="&lt;b&gt;&lt;u&gt;House No&lt;/u&gt;&lt;/b&gt;" style="ellipse;whiteSpace=wrap;html=1;" vertex="1" parent="1">
          <mxGeometry x="1140" y="330" width="120" height="50" as="geometry" />
        </mxCell>
        <mxCell id="T1VYS1GyTTY-NjwaLah--70" value="" style="endArrow=none;html=1;rounded=0;entryX=1;entryY=0;entryDx=0;entryDy=0;exitX=0;exitY=1;exitDx=0;exitDy=0;" edge="1" parent="1" source="4J-5iPxQKvGVU4ECOA4h-3" target="T1VYS1GyTTY-NjwaLah--69">
          <mxGeometry width="50" height="50" relative="1" as="geometry">
            <mxPoint x="1310" y="305" as="sourcePoint" />
            <mxPoint x="1270" y="285" as="targetPoint" />
          </mxGeometry>
        </mxCell>
        <mxCell id="T1VYS1GyTTY-NjwaLah--73" value="crime_rate" style="ellipse;whiteSpace=wrap;html=1;" vertex="1" parent="1">
          <mxGeometry x="2150" y="770" width="120" height="50" as="geometry" />
        </mxCell>
        <mxCell id="T1VYS1GyTTY-NjwaLah--74" value="crime_rate" style="ellipse;whiteSpace=wrap;html=1;" vertex="1" parent="1">
          <mxGeometry x="2200" y="850" width="120" height="50" as="geometry" />
        </mxCell>
        <mxCell id="T1VYS1GyTTY-NjwaLah--75" value="Popular Sight seeings" style="ellipse;whiteSpace=wrap;html=1;" vertex="1" parent="1">
          <mxGeometry x="2170" y="930" width="120" height="50" as="geometry" />
        </mxCell>
        <mxCell id="T1VYS1GyTTY-NjwaLah--76" value="" style="endArrow=none;html=1;rounded=0;entryX=0;entryY=0.5;entryDx=0;entryDy=0;exitX=1;exitY=0.25;exitDx=0;exitDy=0;" edge="1" parent="1" source="WouVvHNb6_mTUOxKdpXr-68" target="T1VYS1GyTTY-NjwaLah--74">
          <mxGeometry width="50" height="50" relative="1" as="geometry">
            <mxPoint x="2058" y="930" as="sourcePoint" />
            <mxPoint x="2080" y="820" as="targetPoint" />
          </mxGeometry>
        </mxCell>
        <mxCell id="T1VYS1GyTTY-NjwaLah--77" value="" style="endArrow=none;html=1;rounded=0;entryX=0;entryY=1;entryDx=0;entryDy=0;exitX=1;exitY=0;exitDx=0;exitDy=0;" edge="1" parent="1" source="WouVvHNb6_mTUOxKdpXr-68" target="T1VYS1GyTTY-NjwaLah--73">
          <mxGeometry width="50" height="50" relative="1" as="geometry">
            <mxPoint x="2068" y="940" as="sourcePoint" />
            <mxPoint x="2090" y="830" as="targetPoint" />
          </mxGeometry>
        </mxCell>
        <mxCell id="T1VYS1GyTTY-NjwaLah--78" value="" style="endArrow=none;html=1;rounded=0;entryX=0;entryY=0.5;entryDx=0;entryDy=0;exitX=1;exitY=0.75;exitDx=0;exitDy=0;" edge="1" parent="1" source="WouVvHNb6_mTUOxKdpXr-68" target="T1VYS1GyTTY-NjwaLah--75">
          <mxGeometry width="50" height="50" relative="1" as="geometry">
            <mxPoint x="2100" y="970" as="sourcePoint" />
            <mxPoint x="2100" y="840" as="targetPoint" />
          </mxGeometry>
        </mxCell>
      </root>
    </mxGraphModel>
  </diagram>
</mxfile>
